<svg width="359" height="224" viewBox="0 0 359 224" fill="none" xmlns="http://www.w3.org/2000/svg">
<path d="M27.2952 0H26.8105V67.1514H27.2952V0Z" fill="#C7C7C7"/>
<path d="M49.8582 89.6317L48.0263 93.754H6.0731L4.24609 89.6317L22.1042 76.9922H32.0001L49.8582 89.6317Z" fill="#EBEBEB"/>
<path d="M33.2423 64.8145L32.0017 76.9932H22.1059L20.8652 64.8145H33.2423Z" fill="#DBDBDB"/>
<path d="M49.8591 89.6289L48.0224 93.7512H6.07404L4.24219 89.6289H49.8591Z" fill="#DBDBDB"/>
<path d="M76.2659 0H75.7812V53.8529H76.2659V0Z" fill="#C7C7C7"/>
<path d="M98.8299 76.327L96.998 80.4543H55.0448L53.2178 76.327L71.0759 63.6875H80.9718L98.8299 76.327Z" fill="#EBEBEB"/>
<path d="M82.213 51.5156L80.9724 63.6894H71.0766L69.8359 51.5156H82.213Z" fill="#DBDBDB"/>
<path d="M98.8298 76.332L96.9931 80.4544H55.0447L53.2129 76.332H98.8298Z" fill="#DBDBDB"/>
<path d="M12.5811 110.658L7.79794 118.541L10.1726 120.027C10.5054 120.248 10.772 120.559 10.943 120.926C11.114 121.292 11.1828 121.699 11.1418 122.103C11.1029 122.553 11.0883 123.004 11.0982 123.456C11.1117 123.867 11.0139 124.273 10.8155 124.631C10.6171 124.989 10.3258 125.283 9.97386 125.482L7.55078 126.825L11.8542 135.02L14.2773 133.677C14.622 133.488 15.011 133.4 15.4016 133.422C15.7922 133.443 16.1694 133.575 16.492 133.801C16.8878 134.084 17.2987 134.343 17.7229 134.579C18.0674 134.773 18.3524 135.061 18.5458 135.411C18.7392 135.761 18.8335 136.159 18.8181 136.561L18.7309 139.4L27.8029 139.687L27.8853 136.838C27.898 136.436 28.0199 136.045 28.2372 135.709C28.4546 135.373 28.7589 135.105 29.1162 134.936C29.3294 134.832 29.5378 134.723 29.7462 134.609C29.9546 134.495 30.1581 134.376 30.3568 134.252C30.6913 134.042 31.0763 133.93 31.469 133.93C31.8617 133.93 32.2467 134.042 32.5812 134.252L34.9607 135.738L39.739 127.855L37.3595 126.344C37.0263 126.123 36.7594 125.813 36.5884 125.446C36.4173 125.08 36.3487 124.672 36.3903 124.268C36.4291 123.82 36.4437 123.37 36.4339 122.921C36.4208 122.509 36.5194 122.102 36.7187 121.744C36.918 121.387 37.2102 121.092 37.5631 120.894L39.9862 119.551L35.6973 111.376L33.2451 112.719C32.8894 112.909 32.489 112.995 32.0885 112.966C31.688 112.937 31.3032 112.795 30.9771 112.555C30.6137 112.298 30.2357 112.06 29.8528 111.847C29.4998 111.659 29.2053 111.373 29.0023 111.023C28.7994 110.673 28.6962 110.272 28.7043 109.865L28.8157 107.021L19.7486 106.729L19.6613 109.577C19.645 109.984 19.5185 110.378 19.2961 110.716C19.0736 111.054 18.7639 111.322 18.4013 111.49C18.1978 111.584 17.9991 111.688 17.8004 111.797C17.6017 111.906 17.4079 112.02 17.2189 112.139C16.8785 112.353 16.4868 112.466 16.0873 112.466C15.6878 112.466 15.2961 112.353 14.9557 112.139L12.5811 110.658ZM19.4336 117.039C20.6956 116.114 22.2095 115.615 23.7627 115.614C25.3159 115.613 26.8303 116.11 28.0934 117.034C29.3565 117.958 30.3047 119.264 30.805 120.767C31.3052 122.27 31.3323 123.896 30.8825 125.416C30.4327 126.936 29.5285 128.274 28.297 129.241C27.0655 130.209 25.5685 130.758 24.0161 130.811C22.4638 130.864 20.9342 130.419 19.6421 129.538C18.3499 128.657 17.3602 127.384 16.8118 125.898C16.2339 124.333 16.1776 122.616 16.6516 121.014C17.1257 119.412 18.1036 118.015 19.4336 117.039Z" fill="#EBEBEB"/>
<path d="M222.555 140.503C222.352 140.381 222.185 140.204 222.075 139.991C221.965 139.779 221.914 139.539 221.93 139.299C221.93 139.165 221.93 139.031 221.93 138.897C221.93 138.764 221.93 138.625 221.93 138.491C221.914 138.251 221.965 138.011 222.075 137.799C222.185 137.586 222.352 137.409 222.555 137.287L223.975 136.45L221.309 131.718L219.87 132.575C219.665 132.695 219.432 132.754 219.197 132.746C218.961 132.737 218.733 132.661 218.537 132.526C218.314 132.382 218.087 132.243 217.849 132.119C217.639 132.012 217.463 131.847 217.339 131.643C217.215 131.44 217.148 131.205 217.146 130.965V129.275H211.816V130.945C211.81 131.183 211.74 131.414 211.615 131.614C211.489 131.815 211.312 131.975 211.103 132.08C210.866 132.204 210.619 132.342 210.415 132.486C210.22 132.621 209.991 132.697 209.756 132.706C209.52 132.715 209.287 132.656 209.082 132.536L207.662 131.698L204.992 136.43L206.417 137.272C206.624 137.394 206.793 137.573 206.905 137.788C207.016 138.004 207.066 138.248 207.047 138.491C207.047 138.625 207.047 138.759 207.047 138.893C207.047 139.026 207.047 139.16 207.047 139.294C207.063 139.535 207.012 139.777 206.901 139.99C206.789 140.204 206.622 140.381 206.417 140.503L204.992 141.34L207.662 146.072L209.077 145.235C209.282 145.115 209.515 145.056 209.75 145.064C209.985 145.071 210.214 145.146 210.41 145.279C210.633 145.43 210.865 145.567 211.103 145.69C211.312 145.798 211.488 145.963 211.611 146.167C211.735 146.371 211.8 146.605 211.801 146.845V148.515H217.132V146.84C217.134 146.6 217.2 146.365 217.324 146.162C217.448 145.958 217.625 145.793 217.835 145.685C218.072 145.561 218.304 145.424 218.528 145.274C218.723 145.141 218.951 145.066 219.185 145.058C219.42 145.051 219.652 145.11 219.855 145.23L221.275 146.067L223.941 141.335L222.555 140.503ZM214.491 143.372C213.628 143.372 212.785 143.11 212.068 142.62C211.35 142.13 210.791 141.434 210.461 140.619C210.131 139.804 210.045 138.907 210.213 138.042C210.381 137.177 210.797 136.383 211.407 135.759C212.017 135.136 212.794 134.711 213.64 134.539C214.486 134.367 215.363 134.455 216.16 134.793C216.957 135.13 217.638 135.702 218.117 136.435C218.596 137.168 218.852 138.03 218.852 138.912C218.852 139.499 218.738 140.079 218.517 140.621C218.297 141.162 217.974 141.654 217.568 142.068C217.161 142.481 216.679 142.809 216.149 143.032C215.618 143.255 215.05 143.369 214.476 143.367L214.491 143.372Z" fill="#EBEBEB"/>
<path d="M91.2929 157.985C91.1031 157.871 90.9454 157.709 90.835 157.515C90.7246 157.32 90.6653 157.1 90.6629 156.875C90.6629 156.652 90.6629 156.434 90.6629 156.211C90.6393 155.988 90.6524 155.761 90.7016 155.542C90.7552 155.323 90.8657 155.123 91.0215 154.963C91.1859 154.815 91.3684 154.69 91.5643 154.591L92.6934 153.917V153.942L89.9989 149.225H90.0619L88.579 150.117C88.3061 150.256 87.9945 150.295 87.697 150.226C87.4169 150.137 87.1508 150.006 86.9071 149.839L86.5388 149.626C86.4029 149.554 86.2801 149.458 86.1753 149.344C85.9605 149.115 85.8302 148.818 85.807 148.502V146.743L85.9185 146.857L80.5877 146.906L80.7525 146.743V148.507C80.7371 148.76 80.6587 149.004 80.5247 149.218C80.3906 149.431 80.2055 149.606 79.9868 149.725L79.6233 149.948L79.2598 150.166C79.1192 150.257 78.9654 150.323 78.8043 150.365C78.4778 150.438 78.1368 150.398 77.8351 150.251L76.3328 149.374L76.6235 149.294L73.9727 154.036L73.8854 153.704L75.3878 154.586C75.5991 154.734 75.7706 154.935 75.8866 155.168C76.0026 155.402 76.0594 155.662 76.0517 155.924V156.36V156.791C76.0545 156.959 76.0316 157.126 75.9838 157.286C75.8831 157.621 75.6725 157.91 75.3878 158.104L73.8854 158.986L73.9678 158.674L76.6138 163.415L76.3425 163.341L77.8496 162.474C78.1521 162.329 78.4935 162.292 78.8188 162.37C78.9744 162.412 79.123 162.477 79.2598 162.563L79.6282 162.786L79.9916 163.004C80.1326 163.083 80.2603 163.186 80.3696 163.306C80.5879 163.55 80.7179 163.863 80.7379 164.193V165.962L80.6071 165.828L85.9379 165.883L85.8603 165.962V164.203C85.8833 163.895 86.01 163.604 86.2189 163.381C86.4388 163.183 86.6832 163.017 86.9459 162.885C87.188 162.723 87.4504 162.594 87.7261 162.504C88.015 162.433 88.3191 162.47 88.5839 162.608L90.0716 163.49H90.0377L92.7225 158.768L91.2929 157.985ZM91.2929 157.985L92.7128 158.817L90.0619 163.554V163.579L88.5693 162.712C88.3163 162.586 88.0285 162.555 87.7552 162.623C87.4754 162.709 87.2105 162.839 86.9701 163.009C86.7174 163.14 86.4841 163.307 86.2771 163.505C86.0892 163.712 85.9779 163.98 85.9621 164.263V166.017V166.096H85.8845L80.5538 166.15H80.4278V165.982V164.233C80.4077 163.975 80.3017 163.732 80.1273 163.544C80.0391 163.452 79.9379 163.373 79.8268 163.311L79.4488 163.093L79.0708 162.875C78.9645 162.81 78.8482 162.763 78.7268 162.737C78.4832 162.681 78.2283 162.712 78.0047 162.826L76.5508 163.713L76.3812 163.817L76.2795 163.638L73.5898 158.921L73.4784 158.723L73.6722 158.609L75.1261 157.732C75.3193 157.596 75.4612 157.397 75.5283 157.167C75.5614 157.052 75.5777 156.931 75.5768 156.811V156.365V155.919C75.5777 155.798 75.5614 155.678 75.5283 155.562C75.4605 155.334 75.3164 155.138 75.1212 155.007L73.6674 154.125L73.459 154.006L73.5801 153.798L76.2649 149.081L76.3764 148.888L76.5605 148.997L78.0144 149.874C78.2307 149.983 78.4771 150.013 78.7122 149.958C78.8309 149.933 78.9442 149.886 79.0466 149.82L79.4246 149.602L79.8075 149.384C79.9151 149.325 80.0132 149.25 80.0982 149.161C80.2697 148.978 80.3727 148.739 80.389 148.487V146.748V146.574H80.5489L85.8797 146.624H86.0009V146.738V148.487C86.0186 148.759 86.1263 149.018 86.3062 149.22C86.5099 149.417 86.74 149.584 86.9895 149.716C87.2177 149.882 87.4694 150.012 87.7358 150.102C88.0008 150.166 88.2793 150.137 88.5257 150.018L90.0232 149.161L90.0619 149.136V149.175L92.7128 153.917L91.5788 154.581C91.3839 154.678 91.2029 154.801 91.0409 154.948C90.8856 155.102 90.775 155.298 90.721 155.513C90.67 155.73 90.6552 155.954 90.6774 156.176C90.6774 156.399 90.6774 156.622 90.6774 156.84C90.6724 157.07 90.7267 157.296 90.8348 157.497C90.9428 157.698 91.1008 157.866 91.2929 157.985Z" fill="#EBEBEB"/>
<path d="M83.2286 160.854C82.4863 160.851 81.7564 160.66 81.1038 160.298C80.4513 159.937 79.8964 159.415 79.4888 158.781C79.0812 158.147 78.8334 157.419 78.7677 156.663C78.7019 155.908 78.8202 155.147 79.112 154.449C79.4038 153.751 79.8599 153.138 80.4398 152.664C81.0197 152.19 81.7053 151.871 82.4354 151.734C83.1655 151.597 83.9174 151.647 84.6241 151.879C85.3307 152.111 85.9701 152.519 86.4853 153.065C87.3185 153.956 87.7717 155.148 87.7453 156.38C87.7064 157.574 87.2159 158.706 86.3771 159.538C85.5382 160.37 84.4165 160.836 83.248 160.839L83.2286 160.854ZM83.2286 160.854C83.7961 160.854 84.3577 160.737 84.8804 160.511C85.4032 160.286 85.8765 159.955 86.2725 159.54C86.6685 159.124 86.9792 158.632 87.1864 158.092C87.3935 157.552 87.4929 156.975 87.4787 156.395C87.446 155.263 86.9834 154.189 86.1891 153.4C85.3948 152.611 84.3312 152.169 83.2238 152.169C82.0953 152.169 81.013 152.627 80.2151 153.443C79.4171 154.258 78.9689 155.365 78.9689 156.519C78.9689 157.673 79.4171 158.779 80.2151 159.595C81.013 160.411 82.0953 160.869 83.2238 160.869L83.2286 160.854Z" fill="#EBEBEB"/>
<path d="M3.98047 216.899L30.5423 216.78L57.1041 216.736L110.228 216.656L163.351 216.736L189.913 216.78L216.475 216.899L189.913 217.023L163.351 217.068L110.228 217.147L57.1041 217.068L30.5423 217.023L3.98047 216.899Z" fill="#263238"/>
<path d="M358.999 59.9277H244.472V178.277H358.999V59.9277Z" fill="#EBEBEB"/>
<path d="M297.129 52.787C300.949 48.2036 307.49 47.1019 313.817 48.4084C320.145 49.7149 327.722 52.9777 328.413 63.7971C328.979 72.5826 326.341 81.1491 326.341 90.9516C326.341 100.754 337.192 124.632 319.827 136.284C304.223 146.751 272.607 137.139 271.633 115.592C270.866 98.5153 290.677 82.724 292.763 75.9654C294.849 69.2068 292.943 57.8012 297.129 52.787Z" fill="#263238"/>
<path d="M294.278 62.4277C294.16 67.3148 293.47 72.2584 291.515 76.8701C291.008 78.0381 290.345 79.1289 289.546 80.1117C288.779 81.1004 287.964 82.0326 287.149 82.9366C285.505 84.7657 283.882 86.5807 282.314 88.4663C279.2 92.1607 276.626 96.2975 274.674 100.748C272.803 105.219 271.774 110.011 271.642 114.872C271.447 112.419 271.519 109.951 271.856 107.513C272.229 105.063 272.847 102.659 273.7 100.338C275.5 95.6875 278.049 91.3785 281.243 87.5906C282.811 85.6767 284.476 83.8476 286.134 82.0397C287.792 80.2317 289.47 78.5085 290.499 76.3899C291.555 74.2237 292.359 71.9389 292.896 69.5818C293.502 67.2289 293.964 64.8396 294.278 62.4277Z" fill="#263238"/>
<path d="M327.98 71.1777C327.862 76.1637 327.551 81.1426 327.683 86.0933C327.739 88.5589 327.942 91.0187 328.29 93.4592C328.65 95.8604 329.354 98.2616 329.941 100.691C330.528 103.12 331.053 105.585 331.44 108.071C331.814 110.569 331.971 113.095 331.91 115.621C331.798 118.159 331.332 120.667 330.528 123.071C329.601 125.434 328.218 127.582 326.46 129.385C328 127.45 329.171 125.236 329.914 122.859C330.558 120.496 330.879 118.053 330.867 115.599C330.671 110.661 329.916 105.762 328.615 101.002C328.063 98.5794 327.358 96.1782 327.019 93.6287C326.702 91.1307 326.578 88.6112 326.646 86.0933C326.792 81.0982 327.238 76.1171 327.98 71.1777Z" fill="#263238"/>
<path d="M302.857 113.107C286.969 130.989 274.004 139.576 261.225 139.576C249.074 139.576 223.116 109.413 221.209 105.437C219.565 102.005 240.875 83.2264 244.149 85.564C249.675 89.4765 267.4 112.125 269.279 112.231C271.158 112.337 278.079 107.662 294.747 99.6815C304.874 94.8439 313.909 100.713 302.857 113.107Z" fill="#EB9481"/>
<path d="M223.682 108.408C221.347 105.823 211.545 92.9206 209.604 88.7114C207.663 84.5023 202.959 71.9738 205.964 70.1306C208.968 68.2873 210.626 71.8397 210.626 71.8397C210.626 71.8397 209.459 66.2322 212.65 64.6573C215.841 63.0824 218.245 68.6969 218.245 68.6969C218.245 68.6969 217.458 62.8494 220.746 61.5075C224.034 60.1657 225.54 66.2393 225.54 66.2393C225.54 66.2393 224.573 60.9214 227.736 60.9849C231.542 61.0626 232.24 71.0699 234.72 75.5544C235.279 76.5714 247.561 95.3288 247.561 95.3288L223.682 108.408Z" fill="#EB9481"/>
<path d="M225.406 65.7275C225.938 73.0794 227.416 76.208 231.623 82.0485C231.706 82.1615 231.561 82.3098 231.464 82.2038C226.815 76.8647 224.411 73.2206 225.04 65.7346C225.088 65.3674 225.378 65.3744 225.406 65.7275Z" fill="#263238"/>
<path d="M218.224 68.1205C219.426 75.7125 220.987 79.1165 224.986 85.5643C225.042 85.6562 224.897 85.7621 224.834 85.6773C220.407 79.6815 218.086 75.9879 217.858 68.2406C217.844 67.8875 218.169 67.7674 218.224 68.1205Z" fill="#263238"/>
<path d="M210.848 72.1691C212.534 79.4362 214.102 83.2428 218.757 88.9915C218.868 89.1327 218.681 89.3093 218.564 89.1821C213.259 83.7866 211.27 79.0478 210.641 72.2327C210.6 71.7807 210.745 71.7101 210.848 72.1691Z" fill="#263238"/>
<path d="M253.037 97.1275C253.037 97.1275 252.878 87.883 251.932 83.8363C250.986 79.7896 242.068 66.0465 239.022 67.8544C235.133 70.1849 238.766 79.154 241.094 83.3208C241.094 83.3208 232.114 88.7164 233.337 95.7363C234.56 102.756 253.037 97.1275 253.037 97.1275Z" fill="#EB9481"/>
<path d="M238.159 68.849C236.087 73.5949 239.54 78.8563 241.509 83.0583C241.541 83.1188 241.558 83.1861 241.559 83.2547C241.56 83.3232 241.545 83.3911 241.515 83.4526C241.485 83.514 241.442 83.5674 241.388 83.6081C241.334 83.6489 241.271 83.6759 241.205 83.6869C237.572 86.2081 233.172 90.8339 233.116 95.5656C233.116 95.5937 233.105 95.6206 233.086 95.6405C233.067 95.6604 233.04 95.6715 233.013 95.6715C232.985 95.6715 232.959 95.6604 232.939 95.6405C232.92 95.6206 232.909 95.5937 232.909 95.5656C232.294 90.4808 236.252 85.5654 240.397 83.0724C238.325 78.7856 235.099 73.3618 238.117 68.8066L238.159 68.849Z" fill="#263238"/>
<path d="M275.462 107.033L288.227 131.384C288.227 131.384 305.537 114.202 308.3 107.033C311.063 99.8651 308.086 94.6602 295.77 98.495C288.734 100.627 281.929 103.488 275.462 107.033Z" fill="#FFC727"/>
<path d="M291.173 126.307C290.545 124.986 289.992 123.623 289.336 122.31C288.68 120.996 288.024 119.697 287.34 118.411C285.958 115.813 284.577 113.207 283.14 110.643C282.325 109.231 281.468 107.776 280.577 106.406C280.543 106.342 280.425 106.406 280.46 106.455C282.802 111.815 285.641 116.95 288.473 122.049C289.295 123.525 290.227 124.93 291.084 126.385C291.111 126.42 291.208 126.357 291.173 126.307Z" fill="#263238"/>
<path d="M308.301 107.032C305.538 114.2 288.227 131.383 288.227 131.383L279.627 115.005L307.997 98.9668C309.627 100.704 309.606 103.649 308.301 107.032Z" fill="#263238"/>
<path d="M278.367 148.029C278.367 148.029 271.349 165.204 273.828 178.269H351.207C348.692 142.753 331.375 112.23 321.145 102.35C312.897 94.3835 304.215 95.0968 298.171 99.1717C296.748 100.139 281.047 122.322 279.348 125.832C272.606 139.681 278.367 148.029 278.367 148.029Z" fill="#FFC727"/>
<path d="M298.711 98.1299C298.711 98.1299 293.876 112.346 296.68 113.088C303.657 114.924 313.017 103.278 313.576 102.092C313.714 101.788 314.336 93.8289 314.799 87.6353C315.096 83.6522 315.324 80.3965 315.324 80.3965L298.11 86.4347L298.663 97.346L298.711 98.1299Z" fill="#EB9481"/>
<path d="M298.083 86.4347L298.636 97.346C302.138 96.8445 309.84 94.9024 314.772 87.6353C315.069 83.6522 315.297 80.3965 315.297 80.3965L313.142 81.1027L298.083 86.4347Z" fill="#263238"/>
<path d="M285.263 71.1583C285.056 76.7022 285.594 81.1868 286.914 84.1671C288.044 86.7127 289.843 88.888 292.11 90.4514C294.376 92.0148 297.023 92.905 299.755 93.0231C301.827 93.1008 307.795 92.5429 312.112 89.1813C315.469 86.5682 317.493 81.8577 318.64 73.5736C321.265 54.6326 312.789 48.2624 304.438 47.4997C296.087 46.737 285.954 52.0478 285.263 71.1583Z" fill="#EB9481"/>
<path d="M290.051 66.9348C290.486 66.8712 290.886 66.7441 291.308 66.6453C291.766 66.6031 292.199 66.4126 292.544 66.1015C292.631 65.9805 292.677 65.8346 292.677 65.6848C292.677 65.535 292.631 65.3891 292.544 65.2681C292.329 65.0637 292.065 64.9214 291.779 64.8556C291.492 64.7899 291.194 64.8031 290.914 64.8938C290.318 64.9906 289.779 65.3103 289.401 65.7907C289.312 65.9019 289.258 66.0383 289.247 66.1817C289.236 66.325 289.267 66.4685 289.338 66.5929C289.409 66.7173 289.515 66.8167 289.642 66.8778C289.769 66.9389 289.912 66.9588 290.051 66.9348Z" fill="#263238"/>
<path d="M302.255 67.4059C301.831 67.3296 301.412 67.2306 300.998 67.1093C300.54 67.0703 300.107 66.8765 299.768 66.5585C299.682 66.4375 299.635 66.2916 299.635 66.1418C299.635 65.992 299.682 65.8461 299.768 65.7251C299.985 65.5213 300.251 65.3804 300.539 65.3171C300.827 65.2537 301.126 65.2703 301.405 65.3649C302.006 65.4631 302.548 65.7882 302.925 66.276C303.012 66.3889 303.062 66.5261 303.071 66.6694C303.079 66.8126 303.045 66.9551 302.972 67.0778C302.899 67.2005 302.792 67.2976 302.664 67.3562C302.536 67.4149 302.393 67.4322 302.255 67.4059Z" fill="#263238"/>
<path d="M299.201 72.1821C299.201 72.1327 299.298 72.2457 299.298 72.3022C299.194 73.5946 299.298 75.1271 300.424 75.5932C300.424 75.5932 300.424 75.6709 300.424 75.6638C299.014 75.3955 298.904 73.3898 299.201 72.1821Z" fill="#263238"/>
<path d="M300.401 70.8775C302.473 70.821 302.418 75.0231 300.511 75.0796C298.605 75.1361 298.708 70.927 300.401 70.8775Z" fill="#263238"/>
<path d="M301.211 71.1084C301.564 71.3486 301.902 71.7723 302.344 71.8147C302.786 71.857 303.228 71.4333 303.56 71.0096C303.594 70.9672 303.629 71.0096 303.629 71.059C303.629 71.8641 303.325 72.6904 302.475 72.8034C301.626 72.9164 301.163 72.1819 300.969 71.3909C300.935 71.2214 301.066 71.0096 301.211 71.1084Z" fill="#263238"/>
<path d="M292.396 71.6314C292.396 71.5819 292.299 71.6949 292.299 71.7444C292.299 73.0509 292.168 74.5693 291.014 74.9789C290.98 74.9789 290.98 75.0566 291.014 75.0495C292.43 74.8518 292.637 72.8602 292.396 71.6314Z" fill="#263238"/>
<path d="M291.264 70.2663C289.191 70.1039 289.046 74.3059 290.946 74.4542C292.846 74.6025 292.977 70.4076 291.264 70.2663Z" fill="#263238"/>
<path d="M290.422 70.5172C290.09 70.7291 289.731 71.1175 289.365 71.1317C288.999 71.1458 288.598 70.6726 288.329 70.2277C288.329 70.1783 288.267 70.2277 288.26 70.2701C288.211 71.0752 288.432 71.9156 289.185 72.1063C289.938 72.2969 290.401 71.6048 290.615 70.8139C290.629 70.6585 290.525 70.4325 290.422 70.5172Z" fill="#263238"/>
<path d="M299.076 82.2949C298.779 82.6127 298.489 83.0435 298.033 83.1C297.559 83.1035 297.09 83.0099 296.652 82.8245C296.643 82.817 296.633 82.8132 296.622 82.8139C296.611 82.8145 296.6 82.8196 296.593 82.8281C296.586 82.8365 296.582 82.8476 296.583 82.8588C296.583 82.8701 296.588 82.8806 296.596 82.8881C296.788 83.1374 297.042 83.3292 297.331 83.4435C297.621 83.5579 297.935 83.5904 298.24 83.5378C298.496 83.4563 298.722 83.3007 298.893 83.0901C299.063 82.8795 299.17 82.6229 299.201 82.3514C299.205 82.3353 299.203 82.3182 299.196 82.3033C299.189 82.2884 299.176 82.2765 299.162 82.2698C299.147 82.263 299.13 82.2618 299.115 82.2664C299.099 82.271 299.085 82.2811 299.076 82.2949Z" fill="#263238"/>
<path d="M293.876 77.47C293.876 77.47 293.572 79.4121 293.558 80.3302C293.558 80.4149 293.772 80.4573 294.076 80.4855C294.076 80.4855 294.076 80.4855 294.111 80.4855C294.873 80.6397 295.663 80.5777 296.393 80.3064C297.124 80.035 297.768 79.5646 298.255 78.946C298.318 78.8612 298.207 78.7624 298.124 78.8188C296.963 79.5918 295.59 79.9632 294.208 79.8782C294.152 79.6169 294.836 76.573 294.691 76.5589C293.984 76.6038 293.287 76.7488 292.619 76.9897C293.137 72.9289 294.284 68.9882 294.733 64.9415C294.733 64.8002 294.546 64.7508 294.505 64.8779C293.013 68.9175 292.322 73.5786 291.679 77.7524C291.624 78.2821 293.489 77.6253 293.876 77.47Z" fill="#263238"/>
<path d="M294.649 80.0086C295.092 80.7008 295.701 81.2651 296.418 81.647C296.813 81.8397 297.257 81.9038 297.689 81.8306C298.635 81.6541 298.725 80.7854 298.614 80.0298C298.547 79.6276 298.436 79.2343 298.283 78.8574C297.223 79.6278 295.95 80.0312 294.649 80.0086Z" fill="#263238"/>
<path d="M296.417 81.6449C296.813 81.8375 297.256 81.9016 297.688 81.8285C298.635 81.6519 298.725 80.7833 298.614 80.0276C298.123 80.0052 297.64 80.1526 297.241 80.4461C296.842 80.7396 296.552 81.1619 296.417 81.6449Z" fill="#FF98B9"/>
<path d="M318.301 71.8706C316.264 71.9341 310.482 66.7363 309.432 56.7502C309.432 56.7502 310.986 65.6487 311.76 66.8987C312.534 68.1487 308.527 63.9679 307.567 55.931C307.567 55.931 303.492 59.561 299.858 60.9735C296.225 62.3859 293.952 62.5695 293.641 62.3153C293.331 62.0611 298.67 59.787 299.996 57.9084C299.996 57.9084 290.512 63.5583 285.981 64.321C285.456 64.4057 286.34 56.0652 292.978 50.6979C299.616 45.3305 308.741 46.6724 312.015 49.356C312.015 49.356 315.594 49.5467 319.904 54.5256C324.214 59.5045 320.491 71.7999 318.301 71.8706Z" fill="#263238"/>
<path d="M315.616 74.9222C315.616 74.9222 319.408 68.7569 322.123 70.1128C324.837 71.4688 322.192 80.2613 319.145 81.5961C318.766 81.7964 318.351 81.916 317.926 81.9478C317.5 81.9796 317.073 81.9228 316.669 81.7808C316.266 81.6389 315.894 81.4148 315.578 81.1221C315.262 80.8293 315.006 80.4741 314.828 80.0777L315.616 74.9222Z" fill="#EB9481"/>
<path d="M321.3 72.6328C321.356 72.6328 321.363 72.6964 321.3 72.7176C319.166 73.7275 318.123 75.8532 317.418 78.0355C318.033 77.1739 318.89 76.6795 320.009 77.414C320.064 77.4493 320.009 77.5482 319.954 77.534C319.569 77.4379 319.165 77.4635 318.795 77.6072C318.425 77.751 318.106 78.0062 317.881 78.3391C317.509 78.91 317.194 79.5182 316.942 80.1541C316.852 80.3589 316.493 80.2742 316.562 80.0411C316.559 80.0224 316.559 80.0033 316.562 79.9846C316.368 77.1315 318.337 73.0495 321.3 72.6328Z" fill="#263238"/>
<path d="M327.135 106.23C334.789 115.263 356.244 147.961 351.27 156.796C346.497 165.271 335.673 167.658 329.443 156.273C324.96 148.13 317.423 123.836 315.551 112.183C314.032 102.748 320.062 97.8752 327.135 106.23Z" fill="#EB9481"/>
<path d="M319.985 135.175L345.35 125.648C345.35 125.648 331.114 105.726 324.558 101.933C318.003 98.1407 312.546 100.429 314.549 113.431C315.627 120.85 317.449 128.137 319.985 135.175Z" fill="#FFC727"/>
<path d="M340.847 121.948C339.466 122.407 338.084 122.775 336.703 123.255C335.321 123.735 333.995 124.222 332.655 124.738C329.94 125.769 327.233 126.8 324.546 127.909C323.04 128.53 321.534 129.201 320.063 129.907C319.994 129.907 320.021 130.056 320.063 130.035C325.589 128.41 330.949 126.249 336.281 124.095C337.829 123.467 339.314 122.683 340.84 122.054C340.944 122.026 340.896 121.927 340.847 121.948Z" fill="#263238"/>
<path d="M321.417 134.57C320.915 134.684 320.422 134.84 319.945 135.036C319.255 133.504 317.618 126.766 317.238 125.036C316.478 121.59 315.856 118.108 315.062 114.662C315.062 114.563 314.875 114.591 314.889 114.662C315.124 116.576 315.414 118.482 315.739 120.375C315.393 119.471 315.048 118.56 314.779 117.635C314.781 117.628 314.783 117.621 314.782 117.614C314.781 117.607 314.779 117.601 314.775 117.595C314.772 117.589 314.766 117.584 314.76 117.581C314.754 117.577 314.748 117.576 314.741 117.576C314.734 117.576 314.727 117.577 314.721 117.581C314.715 117.584 314.71 117.589 314.706 117.595C314.702 117.601 314.7 117.607 314.699 117.614C314.699 117.621 314.7 117.628 314.703 117.635C315.017 118.784 315.402 119.912 315.856 121.011C316.126 124.542 319.269 135.764 319.358 135.721C320.069 135.392 320.761 135.022 321.431 134.613C321.507 134.634 321.507 134.563 321.417 134.57Z" fill="#263238"/>
<path d="M308.874 68.0919L301.656 99.5967C301.345 100.522 301.808 101.263 302.692 101.249L316.472 104.117C316.955 104.071 317.416 103.887 317.8 103.584C318.184 103.281 318.476 102.873 318.641 102.407L325.86 70.9027C326.171 69.9775 325.708 69.236 324.824 69.2572L311.043 66.3828C310.56 66.428 310.1 66.6127 309.716 66.9153C309.332 67.2179 309.04 67.626 308.874 68.0919Z" fill="#A6A6A6"/>
<path d="M310.051 68.2657L302.853 99.7705C302.542 100.696 303.005 101.437 303.889 101.423L317.67 104.29C318.152 104.246 318.612 104.062 318.996 103.761C319.38 103.46 319.672 103.053 319.839 102.588L327.029 71.0836C327.34 70.1513 326.878 69.4169 325.993 69.431L312.22 66.5566C311.738 66.6043 311.278 66.7899 310.895 67.0922C310.511 67.3945 310.219 67.8012 310.051 68.2657Z" fill="#DBDBDB"/>
<path d="M314.42 69.6258C314.427 69.9083 314.351 70.1865 314.201 70.4242C314.052 70.662 313.836 70.8484 313.582 70.9594C313.328 71.0704 313.047 71.1009 312.775 71.047C312.504 70.993 312.255 70.857 312.06 70.6567C311.865 70.4563 311.733 70.2008 311.682 69.9231C311.63 69.6454 311.662 69.3583 311.772 69.099C311.881 68.8397 312.065 68.62 312.298 68.4684C312.532 68.3168 312.804 68.2403 313.08 68.2487C313.436 68.2505 313.777 68.3964 314.028 68.6545C314.279 68.9126 314.42 69.2618 314.42 69.6258Z" fill="#263238"/>
<path d="M333.124 159.123C337.607 167.598 349.474 162.767 351.27 156.793C355.483 142.774 352.872 119.469 350.358 106.453C349.55 102.265 321.726 106.453 321.892 110.98C322.085 116.453 324.337 142.456 333.124 159.123Z" fill="#EB9481"/>
<path d="M350.05 112.678C351.451 106.503 351.536 100.091 350.299 93.8786C348.834 87.1059 344.047 72.7412 324.803 66.3357C320.237 64.8103 312.673 65.9473 319.277 71.2016C323.946 74.9376 328.008 75.8627 330.329 78.5464C330.329 78.5464 320.879 81.1594 319.567 85.8912C318.418 90.0329 317.557 94.2525 316.99 98.5185C317.73 98.8021 318.487 99.038 319.256 99.2247C318.85 103.345 319.788 107.486 321.922 111.005L350.05 112.678Z" fill="#EB9481"/>
<path d="M347.887 87.6437C345.027 85.5251 338.907 81.0193 332.628 79.169C325.665 77.0503 311.719 75.0023 310.268 80.2637C309.204 84.1267 314.461 85.405 314.461 85.405C314.461 85.405 308.521 85.7864 308.306 89.487C308.113 92.8628 312.237 93.6043 312.237 93.6043C312.237 93.6043 308.672 94.4659 309.094 97.7569C309.605 101.705 317.003 99.2471 320.906 102.792C321.783 103.569 347.887 87.6437 347.887 87.6437Z" fill="#EB9481"/>
<path d="M331.702 87.0272C328.69 85.4453 320.94 83.6585 314.571 85.2758C314.426 85.2758 314.378 85.4382 314.516 85.4382C320.284 85.2791 326.05 85.834 331.688 87.0908C331.723 87.1049 331.737 87.0414 331.702 87.0272Z" fill="#263238"/>
<path d="M329.45 94.1451C326.687 93.0575 318.64 91.5744 312.243 93.4389C312.098 93.4812 312.057 93.6154 312.195 93.6084C317.955 93.1379 323.749 93.3417 329.464 94.2157C329.473 94.2138 329.481 94.2083 329.486 94.2004C329.491 94.1924 329.493 94.1827 329.491 94.1733C329.49 94.164 329.484 94.1557 329.476 94.1504C329.469 94.1451 329.459 94.1432 329.45 94.1451Z" fill="#263238"/>
<path d="M330.583 153.22C330.376 152.514 330.175 151.808 329.954 151.165C329.498 149.753 329.105 148.34 328.704 146.928C327.889 144.103 327.108 141.235 326.425 138.354C325.06 132.611 324.024 126.791 323.323 120.924C323.13 119.3 322.964 117.676 322.791 116.051C322.619 114.427 322.563 112.739 322.259 111.108C322.259 111.023 321.451 109.78 321.133 109.166C320.804 108.527 320.515 107.866 320.27 107.188C319.754 105.805 319.403 104.364 319.227 102.894C319.223 102.885 319.217 102.877 319.209 102.872C319.201 102.866 319.192 102.863 319.182 102.863C319.172 102.863 319.163 102.866 319.155 102.872C319.147 102.877 319.141 102.885 319.137 102.894C319.047 104.566 319.253 106.241 319.745 107.838C320.171 109.174 320.905 110.385 321.886 111.369C321.886 111.581 321.935 114.194 322.018 115.656C322.1 117.118 322.232 118.58 322.391 120.035C322.715 122.958 323.116 125.875 323.62 128.778C324.606 134.649 325.977 140.446 327.723 146.13C327.723 146.221 327.785 146.313 327.813 146.405C327.813 146.617 327.813 146.829 327.813 147.041C327.823 147.563 327.865 148.084 327.937 148.601C328.079 149.63 328.327 150.641 328.676 151.617C328.673 151.626 328.672 151.635 328.673 151.644C328.675 151.653 328.678 151.661 328.683 151.669C328.688 151.676 328.695 151.683 328.703 151.687C328.711 151.691 328.719 151.693 328.728 151.693C328.737 151.693 328.746 151.691 328.754 151.687C328.762 151.683 328.769 151.676 328.774 151.669C328.779 151.661 328.782 151.653 328.783 151.644C328.784 151.635 328.783 151.626 328.78 151.617C328.535 150.596 328.369 149.557 328.283 148.51L328.158 147.436C328.538 148.58 328.939 149.724 329.333 150.861C329.609 151.652 329.892 152.422 330.21 153.192C330.528 153.962 330.776 154.71 331.149 155.424C331.149 155.48 331.26 155.424 331.246 155.381C331.073 154.626 330.797 153.933 330.583 153.22Z" fill="#263238"/>
<path d="M244.471 178.272V159.289L223.368 178.272H244.471Z" fill="#EBEBEB"/>
<path d="M55.6951 155.863C59.9597 174.835 68.7797 197.577 72.5452 201.268C77.309 205.935 108.824 214.497 110.394 214.671C114.271 215.072 122.088 186.429 117.939 185.809C111.639 184.878 88.6878 183.604 87.3163 182.163C85.9449 180.721 76.2041 168.165 66.25 154.059C59.3782 144.313 53.0443 144.09 55.6951 155.863Z" fill="#AD6359"/>
<path d="M107.274 213.124C107.734 213.362 114.32 216.751 118.391 217.955C121.429 218.857 130.239 221.211 131.543 217.886C132.435 215.627 127.409 213.62 123.891 212.119C122.035 211.326 119.748 209.344 120.295 208.125C121.264 205.995 126.028 208.125 129.168 209.998C135.241 213.605 143.329 220.101 147.036 216.935C148.437 215.745 146.809 213.575 144.429 211.45C148.306 213.927 152.416 215.959 154.02 214.7C154.945 213.982 154.989 212.996 154.475 211.876C155.667 212.272 156.719 212.193 157.456 211.38C158.711 210.033 158.1 208.051 156.724 206.014C156.96 205.989 157.187 205.907 157.386 205.774C157.585 205.642 157.75 205.462 157.867 205.251C160.528 201.104 147.206 189.198 142.607 188.083C129.062 184.788 114.785 185.403 114.785 185.403C109.464 189.768 107.259 213.115 107.274 213.124Z" fill="#AD6359"/>
<path d="M127.191 200.378C130.416 200.893 133.497 202.104 136.229 203.931C139.665 206.249 141.943 208.965 144.822 211.695C144.833 211.71 144.839 211.729 144.838 211.749C144.837 211.768 144.83 211.786 144.818 211.801C144.805 211.816 144.788 211.825 144.769 211.828C144.751 211.832 144.732 211.828 144.715 211.819C143.344 210.52 137.654 205.635 136.186 204.525C133.53 202.482 130.454 201.082 127.191 200.433C127.148 200.428 127.157 200.368 127.191 200.378Z" fill="#263238"/>
<path d="M129.714 194.497C133.276 195.488 136.925 196.479 140.231 198.223C143.846 200.106 146.676 203.178 149.438 206.151C151.112 207.924 152.745 209.741 154.338 211.601C154.401 211.68 154.299 211.804 154.231 211.725C151.407 208.673 148.5 205.7 145.508 202.806C142.739 200.119 139.478 198.018 135.913 196.623C133.877 195.825 131.784 195.196 129.69 194.562C129.661 194.552 129.676 194.487 129.714 194.497Z" fill="#263238"/>
<path d="M133.519 189.358C136.979 190.086 139.999 190.706 143.061 192.598C147.118 195.11 151.033 199.337 152.405 200.838C153.922 202.493 155.385 204.197 156.82 205.927C156.878 205.996 156.761 206.105 156.698 206.036C153.411 202.244 149.887 198.674 146.148 195.348C144.39 193.738 142.399 192.414 140.246 191.424C138.063 190.548 135.811 189.865 133.514 189.383C133.514 189.383 133.49 189.353 133.519 189.358Z" fill="#263238"/>
<path d="M112.603 184.264L102.91 215.657C102.91 215.657 76.6683 207.997 71.8948 202.71C67.1213 197.424 58.248 170.123 55.6456 156.889C53.0432 143.655 59.5856 144.007 65.5996 152.326C71.6137 160.645 86.5884 180.89 87.4074 181.331C88.2264 181.772 112.603 184.264 112.603 184.264Z" fill="#FFC727"/>
<path opacity="0.1" d="M112.603 184.264L102.91 215.657C102.91 215.657 76.6683 207.997 71.8948 202.71C67.1213 197.424 58.248 170.123 55.6456 156.889C53.0432 143.655 59.5856 144.007 65.5996 152.326C71.6137 160.645 86.5884 180.89 87.4074 181.331C88.2264 181.772 112.603 184.264 112.603 184.264Z" fill="black"/>
<path d="M100.391 201.71C101.568 198.008 102.77 194.317 103.807 190.571C104.398 188.446 104.999 186.315 105.571 184.185C105.595 184.1 105.464 184.056 105.435 184.135C104.112 187.802 102.794 191.483 101.636 195.209C100.478 198.935 99.3001 202.641 98.1952 206.342C97.5701 208.463 97.0031 210.593 96.5039 212.749C96.5039 212.788 96.5621 212.813 96.5766 212.773C98.0208 209.152 99.2081 205.436 100.391 201.71Z" fill="#263238"/>
<path d="M89.6772 211.343L88.5141 210.926C86.3285 210.129 84.0993 209.271 82.0009 208.394C81.7295 208.285 81.463 208.172 81.2013 208.058C80.7797 207.879 80.3581 207.696 79.951 207.513L79.3404 207.24L79.1223 207.141L78.4923 206.844C77.6587 206.452 76.8688 206.061 76.1322 205.664L75.6476 205.387C74.4961 204.781 73.4109 204.052 72.4103 203.212C72.3183 203.128 72.2262 203.043 72.1438 202.959C72.0614 202.875 71.9742 202.791 71.9015 202.711C67.1038 197.425 58.2547 170.124 55.6523 156.89L55.5651 156.434V156.335C55.3906 155.344 55.2355 154.086 55.1095 152.738C54.7461 146.153 57.7943 145.078 61.5598 147.972C70.9468 168.568 85.3254 202.602 89.6772 211.343Z" fill="#263238"/>
<path d="M76.0646 216.616L18.8799 216.923C18.9283 215.664 27.0699 178.851 33.5444 165.265C41.8459 147.844 46.1444 146.437 48.6789 145.505C51.9501 144.306 57.7752 144.901 59.1563 145.57C60.7265 146.318 65.7181 155.227 67.5063 161.762C71.0828 174.907 76.8691 215.813 76.0646 216.616Z" fill="#EBEBEB"/>
<path d="M45.7468 146.881C45.7468 146.881 53.0161 174.404 53.3795 176.233C53.9272 178.888 57.5521 216.782 57.5521 216.782L17.6924 216.921C17.6924 216.921 26.3912 181.841 32.8657 166.482C39.9314 149.636 45.7468 146.881 45.7468 146.881Z" fill="#FFC727"/>
<g opacity="0.1">
<path d="M45.7478 146.883C45.7478 146.883 53.017 174.406 53.3805 176.235C53.9281 178.89 57.5531 216.784 57.5531 216.784L17.6934 216.923C17.6934 216.923 26.3922 181.843 32.8667 166.484C39.9324 149.638 45.7478 146.883 45.7478 146.883Z" fill="black"/>
</g>
<path d="M59.6787 145.996C59.8919 146.873 66.5942 169.234 67.0594 174.808C67.578 180.991 72.1624 216.923 72.1624 216.923H77.9778C77.9778 216.923 69.56 165.3 67.2484 159.845C62.5186 148.711 59.6787 145.996 59.6787 145.996Z" fill="#FFC727"/>
<path opacity="0.1" d="M59.6787 145.996C59.8919 146.873 66.5942 169.234 67.0594 174.808C67.578 180.991 72.1624 216.923 72.1624 216.923H77.9778C77.9778 216.923 69.56 165.3 67.2484 159.845C62.5186 148.711 59.6787 145.996 59.6787 145.996Z" fill="black"/>
<path d="M38.2215 153.315C28.6454 163.804 5.36447 203.6 12.75 210.859C20.1356 218.118 61.139 208.347 72.6535 202.733C76.0797 201.068 63.0629 179.228 59.0357 178.718C55.6822 178.297 38.5462 186.308 38.047 185.303C37.4897 184.163 40.2132 175.755 44.347 160.529C49.0914 142.979 42.457 148.677 38.2215 153.315Z" fill="#AD6359"/>
<path d="M76.0547 171.675C84.3804 170.485 86.7162 171.491 93.2053 166.675C97.4747 163.514 101.284 164.946 98.8462 169.965C94.8626 178.18 84.4337 182.015 80.4308 182.283L76.0547 171.675Z" fill="#AD6359"/>
<path d="M53.9375 179.862C53.9375 179.862 63.2954 174.55 72.0476 172.39C78.0956 170.903 91.6164 169.145 104.556 182.795C107.623 186.03 109.751 192.868 102.864 189.444C97.9697 187.011 95.5951 183.959 92.4887 183.072C92.4887 183.072 94.1849 192.095 90.8944 195.112C88.0184 197.749 84.9625 200.173 81.7496 202.366C81.2213 201.858 80.726 201.315 80.2667 200.741C80.2667 200.741 76.9326 203.263 70.6616 202.648L53.9375 179.862Z" fill="#AD6359"/>
<path d="M78.0478 171.932C80.9555 173.473 87.018 176.847 91.0501 181.375C95.5328 186.409 102.836 197.33 99.1674 200.699C96.4826 203.151 93.352 199.212 93.352 199.212C93.352 199.212 95.4407 204.38 92.5378 206.05C89.8967 207.576 87.6384 204.395 87.6384 204.395C87.6384 204.395 88.3798 207.749 85.5545 208.716C82.1622 209.875 81.1639 202.651 76.7296 200.788C75.7168 200.342 78.0478 171.932 78.0478 171.932Z" fill="#AD6359"/>
<path d="M85.0648 185.311C87.5508 187.218 92.1159 193.03 93.3759 199.05C93.405 199.189 93.3226 199.283 93.2693 199.164C91.0802 194.237 88.3137 189.6 85.0308 185.355C84.9921 185.311 85.0308 185.311 85.0648 185.311Z" fill="#263238"/>
<path d="M80.2272 190.081C82.2093 191.954 86.6532 198.157 87.7242 204.306C87.7484 204.444 87.6564 204.534 87.6127 204.41C85.6723 199.375 83.18 194.581 80.1836 190.12C80.1545 190.091 80.1836 190.056 80.2272 190.081Z" fill="#263238"/>
<path d="M92.4893 183.01C95.2032 183.827 96.9672 185.19 99.2739 186.815C100.397 187.635 101.563 188.391 102.768 189.079C103.873 189.689 105.506 190.61 106.679 189.654C107.338 189.124 107.328 188.168 107.163 187.39C106.832 186.264 106.328 185.199 105.671 184.234C105.671 184.194 105.705 184.149 105.734 184.184C106.369 185.063 106.914 186.006 107.362 186.998C107.656 187.678 107.742 188.433 107.609 189.164C107.207 190.69 105.443 190.893 104.217 190.472C103.474 190.193 102.76 189.839 102.085 189.416C101.426 189.03 100.786 188.614 100.146 188.178C98.8572 187.286 97.6214 186.32 96.342 185.413C95.099 184.56 93.8041 183.789 92.4651 183.104C92.4549 183.099 92.4467 183.091 92.442 183.08C92.4372 183.07 92.4362 183.058 92.4391 183.047C92.442 183.036 92.4486 183.026 92.4577 183.019C92.4669 183.012 92.4781 183.009 92.4893 183.01Z" fill="#263238"/>
<path d="M98.1713 192.772C97.4686 191.192 93.6644 184.602 92.4334 183.076C92.4289 183.068 92.427 183.059 92.428 183.051C92.429 183.042 92.4329 183.034 92.4391 183.027C92.4452 183.021 92.4533 183.017 92.4619 183.016C92.4706 183.015 92.4793 183.017 92.4867 183.021C94.6045 185.073 98.0017 190.518 98.7868 192.262C99.5718 194.006 100.473 196.191 100.473 198.109C100.473 201.007 98.5929 201.577 97.8999 201.701C97.0706 201.854 96.2148 201.711 95.4768 201.294C94.6135 200.755 93.8679 200.04 93.2864 199.194C93.2573 199.154 93.3106 199.1 93.3445 199.139C94.3138 200.284 95.9614 201.408 97.4977 201.2C97.8384 201.167 98.1693 201.065 98.4706 200.899C98.7719 200.733 99.0376 200.507 99.252 200.234C99.6719 199.537 99.8335 198.709 99.7075 197.901C99.4809 196.115 98.9615 194.381 98.1713 192.772Z" fill="#263238"/>
<path d="M53.937 179.858L67.0604 208.1C67.0604 208.1 15.7298 219.882 11.3004 210.746C6.87104 201.609 26.8082 165.856 35.7881 155.441C46.2025 143.371 47.5304 147.479 45.2381 158.176C42.815 169.374 38.1966 185.566 38.1966 185.566L53.937 179.858Z" fill="#FFC727"/>
<path opacity="0.1" d="M53.937 179.858L67.0604 208.1C67.0604 208.1 15.7298 219.882 11.3004 210.746C6.87104 201.609 26.8082 165.856 35.7881 155.441C46.2025 143.371 47.5304 147.479 45.2381 158.176C42.815 169.374 38.1966 185.566 38.1966 185.566L53.937 179.858Z" fill="black"/>
<path d="M22.5969 193.084C27.3315 189.722 32.5306 187.102 38.0222 185.31C39.5778 184.814 41.148 184.344 42.7181 183.883C42.7666 183.883 42.786 183.947 42.7181 183.962C39.9796 184.868 37.2951 185.937 34.6783 187.163C32.0646 188.352 29.48 189.589 26.9245 190.874C25.4706 191.602 24.0556 192.4 22.6308 193.178C22.6212 193.176 22.6123 193.171 22.605 193.165C22.5976 193.158 22.5919 193.15 22.5885 193.14C22.5852 193.131 22.5842 193.121 22.5856 193.111C22.5871 193.101 22.5909 193.092 22.5969 193.084Z" fill="#263238"/>
<path d="M53.8014 179.788C53.5446 179.857 39.5052 184.599 39.0448 184.817C39.103 184.599 41.623 176.968 42.001 175.849C42.0349 175.74 42.0688 175.626 42.1076 175.517C42.3596 175.021 42.6213 174.526 42.8588 174.03C43.1592 173.381 43.4597 172.722 43.7553 172.048H43.7262L42.757 173.966C42.6068 174.258 42.4662 174.56 42.3257 174.863C42.5728 174.075 42.8103 173.282 43.0478 172.484C43.4258 171.221 43.765 169.943 44.0994 168.664C44.0994 168.62 44.0509 168.61 44.0364 168.664C43.2901 170.889 42.4759 173.089 41.7248 175.313C40.9736 177.538 38.0853 185.718 38.1095 185.718C38.1338 185.718 53.5688 180.139 53.8693 180.015C53.8839 180.011 53.8975 180.003 53.9093 179.994C53.9211 179.984 53.9309 179.971 53.9381 179.958C53.9453 179.944 53.9498 179.929 53.9513 179.913C53.9528 179.898 53.9512 179.882 53.9468 179.867C53.9423 179.852 53.935 179.838 53.9253 179.826C53.9156 179.814 53.9037 179.804 53.8902 179.796C53.8767 179.789 53.8619 179.784 53.8466 179.783C53.8314 179.781 53.816 179.783 53.8014 179.788Z" fill="#263238"/>
<path d="M54.7441 198.191C53.2902 195.045 51.88 191.879 50.3244 188.777C49.4375 187.018 48.5604 185.254 47.659 183.505C47.6251 183.441 47.5087 183.505 47.5378 183.56C48.8657 186.781 50.2032 190.001 51.6764 193.167C53.1497 196.333 54.5841 199.46 56.0816 202.581C56.9345 204.355 57.8408 206.101 58.8003 207.818C58.8003 207.853 58.8778 207.818 58.8633 207.818C57.6421 204.538 56.2028 201.372 54.7441 198.191Z" fill="#263238"/>
<path d="M67.7242 208.538C67.2105 207.666 66.5611 206.418 66.0135 205.566C65.8681 205.343 65.6985 205.387 65.8148 205.62C66.2074 206.413 66.5321 207.3 66.9149 208.097C66.1977 208.246 65.4611 208.375 64.7535 208.529C63.92 208.707 63.0913 208.89 62.2577 209.064C60.623 209.394 58.9882 209.724 57.3534 210.055C54.0387 210.686 50.711 211.24 47.3703 211.719C40.6779 212.721 33.9391 213.368 27.1812 213.657C25.2912 213.726 23.3964 213.761 21.5064 213.736C19.642 213.741 17.7787 213.648 15.9236 213.458C15.8703 213.458 15.8606 213.543 15.9236 213.553C17.5198 213.898 19.1403 214.113 20.7697 214.197C22.4804 214.281 24.196 214.321 25.9115 214.301C29.3038 214.261 32.7301 214.033 36.1272 213.716C42.8634 213.082 49.5802 212.15 56.2388 210.946C58.1062 210.616 59.9687 210.258 61.8264 209.871C62.7666 209.678 63.7019 209.485 64.6372 209.272C65.5725 209.059 67.8114 208.687 67.7242 208.538Z" fill="#263238"/>
<path d="M59.6884 156.264C56.2961 157.221 50.2238 152.092 47.7426 147.841C47.573 147.549 47.9073 144.398 48.1351 140.548C48.266 138.214 48.3532 135.593 48.266 133.225C48.266 132.729 63.0128 136.307 63.0128 136.307C63.0128 136.307 61.7528 141.351 61.9273 145.503C61.9427 145.837 61.9881 146.168 62.063 146.494C62.0763 146.546 62.0861 146.599 62.0921 146.652C62.4555 148.49 62.9692 155.338 59.6884 156.264Z" fill="#AD6359"/>
<path d="M49.1689 133.283C49.9928 137.287 52.7939 146.924 60.5962 146.81C61.0966 146.805 61.5958 146.758 62.0888 146.671C62.0949 146.617 62.0949 146.562 62.0888 146.507C62.0169 146.181 61.9699 145.85 61.9483 145.516C61.7787 141.359 63.0338 136.311 63.0338 136.311C63.0338 136.311 52.3626 133.734 49.1689 133.283Z" fill="#263238"/>
<path d="M64.7736 126.073C64.6088 129.73 67.0222 132.811 70.1625 132.96C73.3028 133.109 75.9779 130.255 76.1378 126.598C76.2978 122.942 73.8844 119.86 70.7489 119.716C67.6134 119.572 64.9335 122.416 64.7736 126.073Z" fill="#455A64"/>
<path d="M75.561 126.804C75.7409 122.736 73.0561 119.308 69.5642 119.146C66.0723 118.985 63.0957 122.151 62.9157 126.219C62.7357 130.287 65.4206 133.715 68.9125 133.876C72.4044 134.038 75.381 130.871 75.561 126.804Z" fill="#C7C7C7"/>
<path d="M50.1927 114.253C47.6533 119.148 47.4934 134.711 50.4786 138.784C54.8063 144.68 63.3113 146.845 68.5548 141.212C73.6578 135.732 73.5125 115.447 70.0474 111.597C64.9541 105.914 53.9436 107.024 50.1927 114.253Z" fill="#AD6359"/>
<path d="M62.8471 126.283C62.8471 126.243 62.7647 126.337 62.7695 126.382C62.8228 127.428 62.7162 128.636 61.8003 129.003C61.7712 129.003 61.7761 129.068 61.8003 129.063C62.9343 128.874 63.0603 127.269 62.8471 126.283Z" fill="#263238"/>
<path d="M61.9104 125.213C60.2578 125.123 60.2045 128.508 61.7311 128.587C63.2576 128.666 63.2964 125.287 61.9104 125.213Z" fill="#263238"/>
<path d="M68.5868 126.416C68.5868 126.376 68.6643 126.47 68.6643 126.51C68.6158 127.56 68.7321 128.769 69.6335 129.131C69.6626 129.131 69.6335 129.195 69.6335 129.19C68.5141 129.007 68.3735 127.402 68.5868 126.416Z" fill="#263238"/>
<path d="M69.5224 125.36C71.1701 125.256 71.2477 128.64 69.7163 128.734C68.1849 128.828 68.1364 125.419 69.5224 125.36Z" fill="#263238"/>
<path d="M60.4251 122.513C60.9098 122.488 61.312 122.384 61.7724 122.314C62.2581 122.305 62.7269 122.131 63.1051 121.819C63.2065 121.7 63.2663 121.549 63.2751 121.391C63.2838 121.233 63.2411 121.077 63.1535 120.947C62.9416 120.719 62.6741 120.553 62.3785 120.466C62.0829 120.379 61.77 120.374 61.4719 120.451C60.8404 120.503 60.2507 120.794 59.8194 121.269C59.729 121.383 59.6726 121.521 59.6569 121.666C59.6411 121.812 59.6667 121.959 59.7306 122.09C59.7945 122.221 59.894 122.331 60.0171 122.406C60.1403 122.481 60.2819 122.518 60.4251 122.513Z" fill="#263238"/>
<path d="M71.0767 122.881C70.6342 122.782 70.1974 122.658 69.7682 122.509C69.2915 122.451 68.847 122.233 68.5033 121.89C68.4164 121.759 68.3745 121.603 68.3842 121.445C68.3938 121.287 68.4545 121.137 68.5567 121.018C68.7937 120.815 69.0793 120.68 69.3841 120.627C69.689 120.574 70.0021 120.604 70.2916 120.716C70.9113 120.849 71.4605 121.213 71.8327 121.737C71.9052 121.861 71.9416 122.004 71.9376 122.149C71.9336 122.293 71.8893 122.434 71.81 122.554C71.7308 122.674 71.6197 122.769 71.4898 122.827C71.3599 122.884 71.2166 122.903 71.0767 122.881Z" fill="#263238"/>
<path d="M60.9786 136C61.2209 136.247 61.4632 136.589 61.8315 136.629C62.2126 136.626 62.5889 136.541 62.9364 136.381C62.9434 136.38 62.9506 136.38 62.9573 136.383C62.964 136.385 62.9699 136.389 62.9744 136.395C62.9789 136.401 62.9819 136.407 62.9828 136.415C62.9838 136.422 62.9828 136.429 62.98 136.436C62.8314 136.64 62.631 136.8 62.4005 136.897C62.17 136.993 61.918 137.024 61.6716 136.986C61.4632 136.926 61.2767 136.805 61.1353 136.638C60.994 136.47 60.904 136.264 60.8768 136.044C60.8623 135.985 60.9398 135.96 60.9786 136Z" fill="#263238"/>
<path d="M62.1097 132.878C62.3627 133.297 62.6979 133.658 63.0941 133.938C63.4903 134.217 63.9389 134.41 64.4116 134.504C64.8238 134.594 65.2466 134.622 65.6668 134.588C65.748 134.585 65.8289 134.576 65.9091 134.563L66.132 134.528C66.1869 134.519 66.2373 134.492 66.2758 134.451C66.3143 134.41 66.3386 134.357 66.3452 134.3C66.3476 134.264 66.3476 134.228 66.3452 134.191V134.097C66.3791 133.29 66.3452 132.061 66.3452 132.061C66.6311 132.214 68.0947 132.918 68.0753 132.497C67.9299 128.999 67.7651 125.114 66.8977 121.671C66.8928 121.649 66.8808 121.629 66.8636 121.615C66.8465 121.601 66.8251 121.594 66.8032 121.594C66.7812 121.594 66.7599 121.601 66.7427 121.615C66.7256 121.629 66.7136 121.649 66.7087 121.671C66.7087 125.035 67.3096 128.375 67.3726 131.754C66.8537 131.497 66.3024 131.315 65.7346 131.214C65.6231 131.248 65.8848 133.587 65.8412 133.949C65.8424 133.962 65.8424 133.975 65.8412 133.988C64.5085 134.137 63.5151 133.711 62.2454 132.779C62.1291 132.725 62.0467 132.789 62.1097 132.878Z" fill="#263238"/>
<path d="M65.2061 134.167C64.7654 134.738 64.1877 135.182 63.5293 135.456C63.1659 135.593 62.7697 135.612 62.3953 135.51C61.5812 135.272 61.5715 134.519 61.7314 133.85C61.8207 133.506 61.9492 133.173 62.1142 132.859C62.9823 133.621 64.0655 134.079 65.2061 134.167Z" fill="#263238"/>
<path d="M63.5293 135.455C63.1659 135.592 62.7697 135.611 62.3953 135.509C61.5812 135.272 61.5715 134.518 61.7314 133.85C62.6085 133.959 63.4663 134.583 63.5293 135.455Z" fill="#FF98B9"/>
<path opacity="0.2" d="M48.2881 125.246C49.2864 125.082 51.6804 121.629 52.6933 120.256C53.7061 118.884 54.2925 111.526 54.3846 109.852C52.6073 110.879 51.152 112.401 50.1878 114.241C49.0538 116.441 48.3995 120.767 48.2881 125.246Z" fill="#263238"/>
<path d="M66.7653 115.943C66.1735 116.606 65.4257 117.104 64.5929 117.39C63.76 117.675 62.8697 117.738 62.0063 117.573C61.1253 117.407 60.3003 117.013 59.6099 116.43C58.9194 115.846 58.3864 115.092 58.0615 114.238C58.0615 114.184 57.9646 114.213 57.984 114.263C58.246 115.193 58.7515 116.032 59.4459 116.689C60.1403 117.347 60.9971 117.798 61.9239 117.994C62.8448 118.136 63.786 118.028 64.653 117.68C65.5199 117.332 66.2818 116.757 66.8622 116.012C66.8655 115.999 66.8649 115.986 66.8605 115.973C66.856 115.961 66.848 115.95 66.8374 115.943C66.8268 115.935 66.8143 115.931 66.8013 115.931C66.7884 115.931 66.7758 115.935 66.7653 115.943Z" fill="#263238"/>
<path d="M61.8424 102.754C58.8523 102.725 56.0609 104.325 54.9027 106.366C54.2594 107.53 54.0202 108.881 54.2242 110.201C54.2242 110.256 54.3357 110.246 54.3308 110.201C54.3057 109.038 54.5872 107.889 55.1456 106.875C55.7041 105.862 56.5191 105.02 57.5051 104.439C58.5847 103.762 59.8031 103.351 61.0645 103.238C62.3258 103.124 63.5957 103.312 64.7743 103.785C65.9231 104.219 66.8821 105.059 67.4785 106.153C67.5366 106.267 67.7596 106.203 67.716 106.089C66.96 104.147 64.5417 102.779 61.8424 102.754Z" fill="#263238"/>
<path d="M78.9725 109.933C78.5292 108.41 77.5752 107.096 76.2781 106.221C74.4801 105.003 72.4011 105.107 70.3463 105.255C70.3348 105.255 70.3237 105.26 70.3155 105.268C70.3073 105.277 70.3027 105.288 70.3027 105.3C70.3027 105.312 70.3073 105.323 70.3155 105.331C70.3237 105.34 70.3348 105.344 70.3463 105.344C72.1007 105.226 73.8889 105.206 75.4687 106.103C76.7838 106.83 77.8113 108.002 78.3764 109.417C78.9143 110.869 78.9212 112.471 78.3959 113.927C77.8705 115.384 76.8482 116.598 75.5172 117.345C74.7409 117.755 73.8908 117.998 73.0192 118.061C72.1475 118.123 71.2726 118.002 70.4481 117.707C70.3803 117.682 70.3318 117.776 70.3948 117.806C71.5085 118.254 72.7224 118.377 73.9007 118.161C75.0789 117.944 76.1749 117.397 77.0662 116.58C77.9574 115.763 78.6087 114.708 78.9471 113.534C79.2855 112.36 79.2976 111.113 78.9822 109.933H78.9725Z" fill="#263238"/>
<path d="M49.1082 117.251C49.1082 117.251 46.4622 111.687 48.9435 108.615C50.3488 106.876 54.7976 107.272 54.7976 107.272C54.7976 107.272 56.3242 104.711 60.046 103.982C63.7679 103.254 68.1585 105.637 68.1585 105.637C68.1585 105.637 71.7737 103.7 75.0207 105.761C79.5518 108.635 78.7183 115.814 73.9787 117.954C70.6543 119.441 66.3218 116.339 66.3218 116.339C65.8905 116.384 61.4223 118.911 58.2626 114.803C58.2626 114.803 55.4906 117.142 53.1402 115.343C52.7404 116.045 52.1392 116.605 51.418 116.946C50.6968 117.287 49.8905 117.394 49.1082 117.251Z" fill="#263238"/>
<path d="M51.0164 127.126C51.0164 127.126 48.5012 121.676 46.1315 122.489C43.7617 123.301 45.075 130.843 47.4496 132.26C47.7426 132.463 48.0728 132.603 48.4203 132.673C48.7678 132.742 49.1254 132.739 49.4717 132.664C49.818 132.588 50.1458 132.442 50.4354 132.234C50.725 132.026 50.9704 131.76 51.1569 131.452L51.0164 127.126Z" fill="#AD6359"/>
<path d="M46.5582 124.635C46.5194 124.635 46.5 124.684 46.5582 124.704C48.2156 125.755 48.8698 127.613 49.2284 129.48C48.8165 128.713 48.1526 128.217 47.164 128.703C47.1537 128.709 47.1459 128.72 47.1416 128.731C47.1373 128.743 47.1367 128.756 47.1399 128.768C47.1431 128.78 47.15 128.791 47.1595 128.799C47.1691 128.806 47.1808 128.811 47.193 128.812C47.524 128.766 47.8607 128.825 48.1573 128.982C48.4539 129.139 48.6959 129.386 48.8504 129.689C49.1016 130.198 49.2998 130.732 49.4417 131.284C49.4998 131.462 49.8003 131.423 49.7712 131.225C49.7735 131.21 49.7735 131.195 49.7712 131.18C50.1783 128.866 48.9619 125.304 46.5582 124.635Z" fill="#263238"/>
<path d="M56.4954 138.101L51.722 135.995L47.8838 131.109L48.6204 130.5L52.3132 135.202L56.8734 137.214L56.4954 138.101Z" fill="#C7C7C7"/>
<path d="M55.9865 137.323C56.4711 135.901 60.348 136.426 59.6453 138.576C58.9427 140.727 55.5164 138.735 55.9865 137.323Z" fill="#37474F"/>
<path d="M46.0563 122.341C46.0563 122.341 45.5378 114.349 47.8252 109.955C50.3743 105.044 60.9389 100.372 68.1791 105.649C68.1791 105.649 56.4174 103.499 50.9364 110.306C48.6296 113.17 48.6878 122.564 48.6878 122.564L46.0563 122.341Z" fill="#C7C7C7"/>
<path d="M47.1226 133.817C50.6179 133.781 53.4193 130.452 53.3797 126.38C53.3401 122.309 50.4745 119.037 46.9792 119.072C43.4839 119.108 40.6825 122.437 40.7221 126.509C40.7617 130.581 43.6274 133.852 47.1226 133.817Z" fill="#C7C7C7"/>
<path d="M51.5344 126.17C51.5684 129.831 49.0532 132.824 45.9129 132.854C42.7726 132.883 40.1944 129.945 40.1605 126.284C40.1266 122.622 42.6417 119.63 45.782 119.6C48.9224 119.57 51.5005 122.508 51.5344 126.17Z" fill="#455A64"/>
<path d="M62.0351 146.404L58.6186 155.223L47.8698 144.135L44.8555 147.722C44.8555 147.722 55.3959 165.366 55.4589 164.568L58.9723 156.963L64.119 162.22L63.6344 148.971L62.0351 146.404Z" fill="#EBEBEB"/>
<path d="M64.2451 155.654C64.0949 153.469 64.0077 151.264 63.7605 149.089C63.7605 149.014 63.6345 148.98 63.6151 149.089C63.1984 151.204 63.8138 159.553 63.8138 161.56H63.7896C63.5764 161.332 59.021 156.937 58.9774 157.006C58.2165 158.215 55.6335 163.75 55.459 164.255C53.792 161.451 46.7359 150.407 44.749 147.756C44.7394 147.739 44.7235 147.726 44.7049 147.721C44.6862 147.716 44.6664 147.719 44.6497 147.729C44.633 147.739 44.6208 147.755 44.6158 147.774C44.6108 147.793 44.6134 147.813 44.623 147.83C46.0769 150.803 55.2361 165.375 55.3621 165.335C56.7218 162.723 57.9495 160.04 59.0403 157.299C59.8109 158.255 64.4051 163.22 64.4196 162.893C64.4865 160.478 64.4283 158.062 64.2451 155.654Z" fill="#263238"/>
<path d="M307.905 210.681H280.242C277.559 210.678 274.988 209.588 273.091 207.649C271.195 205.71 270.128 203.08 270.126 200.338C270.126 197.595 271.192 194.965 273.089 193.025C274.986 191.086 277.559 189.996 280.242 189.996H307.905C310.588 189.996 313.161 191.086 315.058 193.025C316.955 194.965 318.021 197.595 318.021 200.338C318.021 201.696 317.759 203.041 317.251 204.296C316.742 205.551 315.997 206.691 315.058 207.651C314.119 208.612 313.004 209.374 311.776 209.893C310.549 210.413 309.234 210.681 307.905 210.681Z" fill="#455A64"/>
<path d="M286.286 200.154C286.306 199.827 286.411 199.511 286.59 199.24L286.841 198.865L287.368 198.326L287.985 197.868C288.835 197.315 289.784 196.939 290.776 196.762C293.064 196.296 295.42 196.296 297.708 196.762C298.688 196.933 299.624 197.303 300.462 197.85C300.677 197.996 300.892 198.161 301.097 198.316L301.616 198.847C301.752 199.047 301.877 199.255 301.992 199.469C302.079 199.689 302.151 199.915 302.206 200.145H297.672C297.637 200.15 297.601 200.143 297.57 200.125C297.539 200.106 297.515 200.078 297.502 200.045C297.378 199.799 297.193 199.591 296.965 199.442C296.737 199.292 296.475 199.207 296.205 199.194C294.886 199.107 293.562 199.107 292.243 199.194C291.975 199.206 291.714 199.29 291.488 199.437C291.262 199.585 291.078 199.792 290.955 200.036C290.955 200.1 290.892 200.145 290.803 200.145H286.286V200.154Z" fill="white"/>
<path d="M286.286 202.742V201.051H290.758C290.758 201.151 290.758 201.261 290.758 201.38V202.742C290.77 202.822 290.764 202.904 290.739 202.98C290.715 203.057 290.673 203.127 290.617 203.184C290.562 203.241 290.493 203.284 290.418 203.309C290.343 203.334 290.264 203.34 290.186 203.328H286.85C286.772 203.341 286.692 203.334 286.618 203.309C286.543 203.284 286.475 203.242 286.42 203.184C286.364 203.127 286.324 203.057 286.3 202.98C286.277 202.903 286.272 202.822 286.286 202.742Z" fill="white"/>
<path d="M297.709 202.799C297.709 202.223 297.709 201.647 297.709 201.08H302.136V201.181C302.136 201.711 302.136 202.251 302.136 202.781C302.144 202.857 302.136 202.935 302.111 203.008C302.086 203.081 302.046 203.147 301.992 203.201C301.939 203.256 301.874 203.297 301.803 203.323C301.732 203.348 301.656 203.357 301.581 203.348H298.209C298.14 203.351 298.07 203.339 298.006 203.312C297.941 203.285 297.883 203.244 297.835 203.191C297.788 203.139 297.752 203.077 297.73 203.01C297.708 202.942 297.701 202.87 297.709 202.799Z" fill="white"/>
<path d="M117.958 217.51H114.634V219.729H117.958V217.51Z" fill="#455A64"/>
<path d="M122.268 217.359H118.943V219.579H122.268V217.359Z" fill="#455A64"/>
<path d="M126.58 217.211H123.256V219.431H126.58V217.211Z" fill="#455A64"/>
<path d="M130.894 217.068H127.569V219.288H130.894V217.068Z" fill="#455A64"/>
<path d="M135.207 216.92H131.883V219.14H135.207V216.92Z" fill="#455A64"/>
<path d="M139.518 216.777H136.193V218.997H139.518V216.777Z" fill="#455A64"/>
<path d="M143.833 216.627H140.509V218.847H143.833V216.627Z" fill="#455A64"/>
<path d="M148.147 216.479H144.822V218.698H148.147V216.479Z" fill="#455A64"/>
<path d="M152.452 216.336H149.128V218.556H152.452V216.336Z" fill="#455A64"/>
<path d="M153.274 221.005H113.816V218.304L153.274 217.18V221.005Z" fill="#37474F"/>
<path d="M191.781 210.354H126.648L137.005 160.777H202.137L191.781 210.354Z" fill="#455A64"/>
<path d="M194.189 210.354H129.057L139.413 160.777H204.545L194.189 210.354Z" fill="#37474F"/>
<path d="M170.929 185.475C172.696 183.805 172.998 181.2 171.603 179.657C170.208 178.113 167.645 178.216 165.877 179.885C164.11 181.555 163.809 184.159 165.204 185.703C166.599 187.246 169.162 187.144 170.929 185.475Z" fill="#263238"/>
<path d="M175.768 223.299H143.734V220.753L175.768 219.697V223.299Z" fill="#455A64"/>
<path d="M184.476 223.299H167.277L156.916 195.518H174.115L184.476 223.299Z" fill="#455A64"/>
<path d="M187.306 223.299H170.107L159.751 195.518H176.95L187.306 223.299Z" fill="#263238"/>
<path d="M112.598 223.976H79.5718C76.7562 223.976 80.8318 215.771 91.1202 212.625C101.409 209.479 115.845 220.899 112.598 223.976Z" fill="#37474F"/>
<path d="M99.6416 223.974C99.6681 223.039 99.8198 222.112 100.092 221.219C100.358 220.319 100.731 219.456 101.202 218.648C101.676 217.836 102.267 217.103 102.956 216.473C103.638 215.84 104.424 215.337 105.278 214.986C104.924 215.284 104.522 215.482 104.197 215.814L103.712 216.255L103.228 216.75C102.615 217.403 102.079 218.127 101.629 218.906C101.171 219.685 100.779 220.502 100.456 221.348C100.127 222.204 99.855 223.081 99.6416 223.974Z" fill="#263238"/>
<path d="M103.551 216.166C105.512 216.83 107.369 217.783 109.061 218.995C109.916 219.599 110.69 220.316 111.363 221.126C111.693 221.54 111.978 221.99 112.211 222.468C112.441 222.946 112.573 223.467 112.599 223.999C112.483 223.495 112.281 223.015 112.002 222.582C111.739 222.148 111.43 221.745 111.082 221.378C110.376 220.647 109.605 219.983 108.78 219.396C107.961 218.792 107.093 218.252 106.226 217.717C105.79 217.449 105.344 217.192 104.898 216.944C104.452 216.696 104.001 216.419 103.551 216.166Z" fill="#263238"/>
<path d="M114.958 111.427C114.673 114.191 113.643 116.819 111.982 119.019C110.322 121.218 108.096 122.903 105.553 123.885C103.011 124.867 100.252 125.107 97.5832 124.58C94.9148 124.052 92.4423 122.776 90.4415 120.896L83.0898 122.015L86.7632 115.53C85.8454 113.245 85.4989 110.762 85.7552 108.306C85.9434 106.336 86.5109 104.424 87.4248 102.68C88.3388 100.936 89.5812 99.3935 91.0806 98.1422C92.5799 96.8909 94.3066 95.9552 96.1612 95.389C98.0157 94.8228 99.9615 94.6373 101.886 94.8431C103.811 95.049 105.678 95.6422 107.377 96.5885C109.077 97.5348 110.577 98.8155 111.791 100.357C113.004 101.898 113.908 103.67 114.449 105.57C114.99 107.47 115.158 109.461 114.944 111.427H114.958Z" fill="white"/>
<path d="M114.959 111.427C114.677 114.192 113.653 116.825 111.998 119.032C111.587 119.581 111.144 120.104 110.671 120.598C110.18 121.074 109.662 121.521 109.12 121.935C108.04 122.776 106.849 123.455 105.582 123.952C104.316 124.459 102.986 124.783 101.632 124.913C100.954 124.978 100.272 124.992 99.5923 124.953C98.911 124.937 98.232 124.865 97.5617 124.74C94.8526 124.232 92.3355 122.962 90.2925 121.073L90.4669 121.128L83.1347 122.282L82.6064 122.381L82.873 121.886L86.527 115.38V115.638C85.6696 113.507 85.2989 111.204 85.4432 108.904C85.5875 106.604 86.243 104.369 87.3597 102.367C88.4765 100.365 90.0251 98.6506 91.8877 97.353C93.7504 96.0554 95.878 95.2093 98.1086 94.8791C100.339 94.5488 102.614 94.7431 104.76 95.4472C106.906 96.1513 108.867 97.3466 110.493 98.9422C112.12 100.538 113.369 102.492 114.145 104.655C114.921 106.818 115.205 109.134 114.974 111.427H114.959ZM114.959 111.427C115.19 109.168 114.911 106.887 114.144 104.756C113.378 102.625 112.144 100.702 110.538 99.1345C108.932 97.5669 106.995 96.3963 104.878 95.7126C102.761 95.0288 100.518 94.85 98.3226 95.1899C96.1454 95.5219 94.0716 96.3592 92.26 97.6375C90.4684 98.9265 88.9706 100.596 87.8694 102.533C86.7858 104.479 86.1463 106.65 85.9988 108.885C85.8633 111.124 86.2193 113.365 87.0407 115.445L87.094 115.579L87.0213 115.697L83.3285 122.173L83.0668 121.777L90.4136 120.727H90.5154L90.5881 120.796C92.5489 122.673 94.982 123.954 97.615 124.497C98.2717 124.632 98.9376 124.715 99.6068 124.745C100.275 124.792 100.945 124.792 101.613 124.745C102.954 124.64 104.274 124.343 105.534 123.863C106.8 123.395 107.992 122.739 109.071 121.916C109.612 121.505 110.13 121.063 110.622 120.593C111.097 120.104 111.542 119.586 111.955 119.042C113.627 116.837 114.667 114.201 114.959 111.427Z" fill="#263238"/>
<path d="M108.546 110.323C108.547 110.683 108.444 111.035 108.249 111.335C108.054 111.634 107.777 111.868 107.452 112.007C107.127 112.145 106.769 112.182 106.424 112.112C106.078 112.043 105.761 111.87 105.512 111.616C105.263 111.362 105.093 111.038 105.024 110.685C104.955 110.332 104.99 109.966 105.124 109.633C105.259 109.301 105.487 109.017 105.779 108.817C106.072 108.617 106.416 108.51 106.768 108.51C107.001 108.509 107.232 108.556 107.448 108.646C107.664 108.737 107.86 108.871 108.025 109.039C108.19 109.208 108.321 109.408 108.411 109.628C108.5 109.848 108.546 110.085 108.546 110.323Z" fill="#263238"/>
<path d="M102.181 110.323C102.182 110.683 102.078 111.036 101.883 111.335C101.688 111.635 101.411 111.869 101.085 112.007C100.76 112.145 100.402 112.182 100.057 112.112C99.7113 112.042 99.394 111.869 99.145 111.614C98.8959 111.359 98.7264 111.035 98.658 110.682C98.5895 110.328 98.6251 109.962 98.7603 109.63C98.8955 109.298 99.1243 109.014 99.4175 108.814C99.7107 108.615 100.055 108.509 100.407 108.51C100.878 108.51 101.329 108.701 101.662 109.041C101.994 109.381 102.181 109.842 102.181 110.323Z" fill="#263238"/>
<path d="M95.8168 110.323C95.8178 110.683 95.7143 111.035 95.5195 111.335C95.3246 111.634 95.0472 111.868 94.7223 112.007C94.3974 112.145 94.0396 112.182 93.6943 112.112C93.349 112.043 93.0316 111.87 92.7824 111.616C92.5332 111.362 92.3633 111.038 92.2943 110.685C92.2253 110.332 92.2602 109.966 92.3947 109.633C92.5292 109.301 92.7571 109.017 93.0497 108.817C93.3423 108.617 93.6863 108.51 94.0383 108.51C94.5092 108.51 94.9608 108.701 95.2942 109.041C95.6276 109.381 95.8156 109.842 95.8168 110.323Z" fill="#263238"/>
<path d="M121.176 33.6298C121.461 36.3932 122.491 39.0213 124.151 41.2212C125.812 43.4211 128.037 45.1064 130.579 46.0892C133.121 47.072 135.88 47.3137 138.549 46.7874C141.217 46.261 143.69 44.9873 145.693 43.1082L153.03 44.2082L149.361 37.7224C150.202 35.6104 150.562 33.3302 150.412 31.0549C150.262 28.7796 149.607 26.5693 148.496 24.5918C147.385 22.6143 145.848 20.9217 144.001 19.6426C142.155 18.3636 140.047 17.5317 137.839 17.2103C135.631 16.8889 133.38 17.0864 131.258 17.7877C129.135 18.4891 127.197 19.6758 125.591 21.2578C123.984 22.8398 122.752 24.7754 121.987 26.9175C121.222 29.0596 120.944 31.3518 121.176 33.6199V33.6298Z" fill="white"/>
<path d="M252.574 22.9217C254.173 21.3104 256.112 20.0961 258.242 19.3727C260.372 18.6493 262.636 18.4362 264.859 18.7499C267.099 19.0518 269.24 19.8738 271.121 21.1529C273.969 23.0969 276.073 25.9879 277.075 29.3361C278.078 32.6844 277.917 36.2839 276.621 39.525V39.2674L280.265 45.7828L280.532 46.2783L280.004 46.1941L272.667 45.0446L272.841 44.9901C270.798 46.8787 268.281 48.1483 265.572 48.6566C264.902 48.7822 264.223 48.8534 263.541 48.8696C262.863 48.906 262.183 48.8927 261.506 48.83C258.788 48.565 256.195 47.5361 254.014 45.8572C253.472 45.4427 252.954 44.996 252.463 44.5194C251.991 44.0245 251.547 43.5017 251.135 42.9537C248.938 40.0192 247.871 36.3629 248.134 32.6774C248.398 28.9919 249.974 25.5331 252.565 22.9564L252.574 22.9217ZM251.188 42.8843C251.601 43.427 252.046 43.9433 252.521 44.4302C253.011 44.9034 253.529 45.3452 254.072 45.7531C255.151 46.5807 256.345 47.2387 257.614 47.7053C258.873 48.1834 260.191 48.4802 261.53 48.5872C262.2 48.6343 262.872 48.6343 263.541 48.5872C264.209 48.5569 264.873 48.4741 265.528 48.3395C268.161 47.7967 270.594 46.5151 272.555 44.6383L272.628 44.5689H272.73L280.076 45.6193L279.815 46.0157L276.122 39.5399L276.049 39.416L276.103 39.2822C276.925 37.2105 277.278 34.975 277.135 32.7438C276.991 30.5127 276.355 28.3437 275.274 26.4C274.174 24.4626 272.676 22.7924 270.883 21.5047C269.073 20.2272 267.001 19.39 264.826 19.0571C261.95 18.6031 259.008 19.0435 256.38 20.3211C253.753 21.5986 251.561 23.6542 250.091 26.2211C248.621 28.788 247.939 31.7475 248.135 34.7154C248.331 37.6834 249.394 40.5226 251.188 42.8645V42.8843Z" fill="#263238"/>
<path d="M264.085 35.5832V37.4561C264.089 37.6426 264.056 37.8281 263.988 38.0012C263.92 38.1744 263.818 38.3317 263.689 38.4636C263.56 38.5956 263.406 38.6994 263.237 38.7689C263.068 38.8385 262.886 38.8722 262.704 38.8682C262.338 38.8669 261.987 38.7177 261.728 38.4531C261.47 38.1886 261.324 37.8302 261.323 37.4561V34.4832C261.323 34.4535 261.352 34.4535 261.352 34.4238C261.352 34.3941 261.323 34.3941 261.323 34.3693C261.332 33.9979 261.481 33.6445 261.738 33.3819C261.995 33.1192 262.34 32.9672 262.704 32.9572C263.138 32.9921 263.575 32.9347 263.987 32.7886C264.398 32.6426 264.776 32.4111 265.096 32.1086C265.416 31.8061 265.671 31.4393 265.846 31.0311C266.021 30.6229 266.111 30.1821 266.111 29.7366C266.111 29.2911 266.021 28.8503 265.846 28.4421C265.671 28.0339 265.416 27.6671 265.096 27.3646C264.776 27.0621 264.398 26.8306 263.987 26.6846C263.575 26.5386 263.138 26.4812 262.704 26.516C262.156 26.5138 261.618 26.6592 261.143 26.9376C260.669 27.2159 260.274 27.6174 259.999 28.1015C259.905 28.2655 259.78 28.4086 259.631 28.5225C259.482 28.6364 259.312 28.7188 259.132 28.7649C258.951 28.811 258.764 28.8199 258.58 28.7911C258.396 28.7623 258.22 28.6963 258.061 28.597C257.905 28.503 257.768 28.3783 257.659 28.2302C257.55 28.0821 257.471 27.9134 257.426 27.7338C257.381 27.5543 257.371 27.3674 257.397 27.1839C257.423 27.0004 257.484 26.824 257.576 26.6647C258.067 25.7946 258.761 25.0629 259.597 24.5354C260.433 24.008 261.383 23.7013 262.364 23.643C263.344 23.5847 264.324 23.7767 265.214 24.2016C266.103 24.6266 266.876 25.2711 267.462 26.0772C268.047 26.8833 268.428 27.8257 268.568 28.8194C268.709 29.8132 268.606 30.8272 268.268 31.7701C267.93 32.713 267.369 33.5551 266.633 34.2208C265.898 34.8864 265.012 35.3546 264.056 35.5832H264.085ZM264.085 41.8906V42.386C264.089 42.5728 264.057 42.7585 263.989 42.932C263.921 43.1055 263.82 43.263 263.691 43.3951C263.561 43.5272 263.407 43.6311 263.238 43.7003C263.068 43.7696 262.886 43.8029 262.704 43.7981C262.337 43.7981 261.986 43.6493 261.727 43.3845C261.468 43.1197 261.323 42.7605 261.323 42.386V41.8906C261.328 41.5176 261.475 41.1614 261.733 40.8977C261.991 40.634 262.339 40.4836 262.704 40.4785C262.886 40.4765 263.066 40.5116 263.234 40.5819C263.403 40.6522 263.556 40.7561 263.685 40.8876C263.813 41.0191 263.915 41.1756 263.984 41.3478C264.052 41.52 264.087 41.7046 264.085 41.8906Z" fill="#FFC727"/>
</svg>
