<svg width="671" height="264" viewBox="0 0 671 264" fill="none" xmlns="http://www.w3.org/2000/svg">
<path d="M3.5468 236.382V207.093H21.1092V210.239H7.0936V220.136H19.7934V223.282H7.0936V236.382H3.5468ZM42.0575 207.093V236.382H38.5107V207.093H42.0575ZM60.4958 236.382V207.093H64.0426V233.236H77.6577V236.382H60.4958ZM94.4764 207.093H98.7097L108.664 231.405H109.007L118.961 207.093H123.194V236.382H119.876V214.129H119.59L110.437 236.382H107.233L98.0804 214.129H97.7944V236.382H94.4764V207.093ZM139.115 207.093H143.177L151.3 220.765H151.644L159.767 207.093H163.828L153.245 224.312V236.382H149.699V224.312L139.115 207.093ZM179.743 236.382V207.093H197.305V210.239H183.289V220.136H195.989V223.282H183.289V236.382H179.743ZM233.928 207.093H237.475V226.486C237.475 228.488 237.003 230.276 236.059 231.849C235.124 233.412 233.804 234.647 232.097 235.553C230.391 236.449 228.388 236.897 226.091 236.897C223.793 236.897 221.791 236.449 220.084 235.553C218.377 234.647 217.052 233.412 216.108 231.849C215.174 230.276 214.706 228.488 214.706 226.486V207.093H218.253V226.2C218.253 227.63 218.568 228.903 219.197 230.018C219.826 231.124 220.723 231.997 221.886 232.635C223.059 233.265 224.46 233.579 226.091 233.579C227.721 233.579 229.122 233.265 230.295 232.635C231.468 231.997 232.364 231.124 232.984 230.018C233.613 228.903 233.928 227.63 233.928 226.2V207.093ZM279.11 207.093V236.382H275.678L259.717 213.385H259.431V236.382H255.884V207.093H259.317L275.335 230.147H275.621V207.093H279.11ZM306.573 236.382H297.534V207.093H306.973C309.815 207.093 312.246 207.679 314.267 208.852C316.288 210.015 317.838 211.688 318.915 213.872C319.993 216.045 320.531 218.648 320.531 221.68C320.531 224.731 319.988 227.358 318.901 229.561C317.814 231.753 316.231 233.441 314.153 234.623C312.074 235.796 309.548 236.382 306.573 236.382ZM301.081 233.236H306.344C308.766 233.236 310.773 232.769 312.365 231.834C313.957 230.9 315.144 229.57 315.926 227.844C316.708 226.119 317.099 224.064 317.099 221.68C317.099 219.316 316.713 217.28 315.94 215.574C315.168 213.857 314.014 212.542 312.479 211.626C310.944 210.701 309.033 210.239 306.744 210.239H301.081V233.236ZM353.825 214.415C353.654 212.966 352.958 211.841 351.737 211.04C350.517 210.239 349.02 209.839 347.247 209.839C345.95 209.839 344.815 210.048 343.843 210.468C342.88 210.887 342.127 211.464 341.583 212.198C341.049 212.933 340.782 213.767 340.782 214.701C340.782 215.483 340.968 216.155 341.34 216.718C341.721 217.271 342.208 217.733 342.799 218.105C343.39 218.467 344.01 218.768 344.658 219.006C345.306 219.235 345.902 219.421 346.446 219.564L349.42 220.365C350.183 220.565 351.032 220.841 351.966 221.194C352.91 221.547 353.811 222.028 354.669 222.639C355.537 223.239 356.252 224.011 356.814 224.955C357.377 225.899 357.658 227.058 357.658 228.431C357.658 230.013 357.243 231.444 356.414 232.721C355.594 233.999 354.393 235.014 352.81 235.767C351.237 236.521 349.325 236.897 347.075 236.897C344.977 236.897 343.161 236.559 341.626 235.882C340.101 235.205 338.899 234.261 338.022 233.05C337.154 231.839 336.663 230.433 336.549 228.831H340.21C340.306 229.937 340.677 230.852 341.326 231.577C341.984 232.292 342.813 232.826 343.814 233.179C344.825 233.522 345.912 233.694 347.075 233.694C348.429 233.694 349.645 233.474 350.722 233.036C351.799 232.588 352.653 231.968 353.282 231.177C353.911 230.376 354.226 229.441 354.226 228.373C354.226 227.401 353.954 226.61 353.411 225.999C352.867 225.389 352.152 224.893 351.265 224.512C350.379 224.131 349.42 223.797 348.391 223.511L344.787 222.481C342.498 221.823 340.687 220.884 339.352 219.664C338.017 218.443 337.35 216.846 337.35 214.873C337.35 213.233 337.793 211.803 338.68 210.582C339.576 209.352 340.778 208.399 342.284 207.722C343.8 207.035 345.492 206.692 347.361 206.692C349.249 206.692 350.927 207.031 352.395 207.708C353.864 208.375 355.027 209.29 355.885 210.454C356.752 211.617 357.21 212.937 357.258 214.415H353.825Z" fill="#F4A262"/>
<path d="M304.476 251.087C304.476 252.664 304.191 254.026 303.622 255.174C303.052 256.322 302.272 257.208 301.279 257.831C300.286 258.453 299.153 258.765 297.878 258.765C296.603 258.765 295.47 258.453 294.477 257.831C293.485 257.208 292.704 256.322 292.135 255.174C291.565 254.026 291.281 252.664 291.281 251.087C291.281 249.511 291.565 248.149 292.135 247C292.704 245.852 293.485 244.967 294.477 244.344C295.47 243.721 296.603 243.41 297.878 243.41C299.153 243.41 300.286 243.721 301.279 244.344C302.272 244.967 303.052 245.852 303.622 247C304.191 248.149 304.476 249.511 304.476 251.087ZM302.724 251.087C302.724 249.793 302.508 248.701 302.075 247.81C301.646 246.92 301.065 246.246 300.33 245.789C299.6 245.332 298.783 245.103 297.878 245.103C296.973 245.103 296.153 245.332 295.419 245.789C294.689 246.246 294.108 246.92 293.675 247.81C293.246 248.701 293.032 249.793 293.032 251.087C293.032 252.381 293.246 253.474 293.675 254.364C294.108 255.254 294.689 255.928 295.419 256.386C296.153 256.843 296.973 257.072 297.878 257.072C298.783 257.072 299.6 256.843 300.33 256.386C301.065 255.928 301.646 255.254 302.075 254.364C302.508 253.474 302.724 252.381 302.724 251.087ZM309.825 258.56L306.41 247.351H308.219L310.642 255.933H310.759L313.153 247.351H314.992L317.357 255.904H317.473L319.896 247.351H321.706L318.291 258.56H316.598L314.145 249.949H313.97L311.518 258.56H309.825ZM325.705 251.817V258.56H323.983V247.351H325.647V249.102H325.793C326.056 248.533 326.455 248.076 326.99 247.73C327.525 247.38 328.216 247.205 329.063 247.205C329.822 247.205 330.486 247.36 331.055 247.672C331.624 247.978 332.067 248.445 332.383 249.073C332.699 249.696 332.858 250.484 332.858 251.438V258.56H331.135V251.554C331.135 250.674 330.907 249.988 330.449 249.496C329.992 249 329.364 248.752 328.566 248.752C328.017 248.752 327.525 248.871 327.092 249.109C326.664 249.348 326.326 249.696 326.078 250.153C325.83 250.61 325.705 251.165 325.705 251.817ZM337.26 258.677C336.9 258.677 336.591 258.548 336.333 258.29C336.075 258.032 335.946 257.724 335.946 257.363C335.946 257.003 336.075 256.695 336.333 256.437C336.591 256.179 336.9 256.05 337.26 256.05C337.62 256.05 337.929 256.179 338.187 256.437C338.445 256.695 338.574 257.003 338.574 257.363C338.574 257.602 338.513 257.821 338.391 258.02C338.274 258.22 338.116 258.38 337.917 258.502C337.722 258.619 337.503 258.677 337.26 258.677ZM350.393 258.56L346.306 243.614H348.145L351.269 255.787H351.415L354.596 243.614H356.64L359.822 255.787H359.968L363.091 243.614H364.93L360.844 258.56H358.975L355.677 246.65H355.56L352.261 258.56H350.393ZM369.207 258.823C368.497 258.823 367.852 258.689 367.273 258.422C366.694 258.149 366.234 257.758 365.894 257.247C365.553 256.731 365.383 256.108 365.383 255.378C365.383 254.736 365.509 254.216 365.762 253.817C366.015 253.413 366.354 253.097 366.777 252.868C367.2 252.639 367.667 252.469 368.178 252.357C368.694 252.24 369.212 252.148 369.733 252.08C370.414 251.992 370.966 251.926 371.389 251.883C371.817 251.834 372.129 251.754 372.323 251.642C372.523 251.53 372.623 251.335 372.623 251.058V251C372.623 250.28 372.426 249.72 372.031 249.321C371.642 248.922 371.051 248.723 370.258 248.723C369.436 248.723 368.791 248.903 368.324 249.263C367.857 249.623 367.529 250.007 367.339 250.416L365.704 249.832C365.996 249.151 366.385 248.62 366.872 248.241C367.363 247.857 367.898 247.589 368.477 247.438C369.061 247.283 369.635 247.205 370.2 247.205C370.56 247.205 370.973 247.248 371.44 247.336C371.912 247.419 372.367 247.591 372.805 247.854C373.248 248.117 373.615 248.513 373.907 249.044C374.199 249.574 374.345 250.284 374.345 251.175V258.56H372.623V257.042H372.535C372.418 257.286 372.224 257.546 371.951 257.823C371.679 258.101 371.316 258.337 370.864 258.531C370.411 258.726 369.859 258.823 369.207 258.823ZM369.47 257.276C370.151 257.276 370.725 257.142 371.192 256.875C371.664 256.607 372.019 256.261 372.258 255.838C372.501 255.415 372.623 254.97 372.623 254.503V252.926C372.55 253.014 372.389 253.094 372.141 253.167C371.898 253.235 371.615 253.296 371.294 253.35C370.978 253.398 370.669 253.442 370.367 253.481C370.071 253.515 369.83 253.544 369.645 253.569C369.197 253.627 368.779 253.722 368.39 253.853C368.005 253.98 367.694 254.172 367.456 254.43C367.222 254.683 367.105 255.028 367.105 255.466C367.105 256.064 367.327 256.517 367.769 256.823C368.217 257.125 368.784 257.276 369.47 257.276ZM382.364 247.351V248.81H376.554V247.351H382.364ZM378.248 244.665H379.97V255.349C379.97 255.836 380.04 256.201 380.181 256.444C380.327 256.682 380.512 256.843 380.736 256.926C380.965 257.003 381.206 257.042 381.459 257.042C381.648 257.042 381.804 257.033 381.926 257.013C382.047 256.989 382.145 256.969 382.218 256.955L382.568 258.502C382.451 258.546 382.288 258.59 382.079 258.633C381.87 258.682 381.605 258.706 381.283 258.706C380.797 258.706 380.32 258.602 379.853 258.393C379.391 258.183 379.006 257.865 378.7 257.436C378.398 257.008 378.248 256.468 378.248 255.816V244.665ZM389.388 258.794C388.337 258.794 387.432 258.546 386.673 258.05C385.914 257.553 385.33 256.87 384.922 255.999C384.513 255.128 384.308 254.133 384.308 253.014C384.308 251.875 384.518 250.871 384.936 250C385.359 249.124 385.948 248.44 386.702 247.949C387.461 247.453 388.347 247.205 389.359 247.205C390.147 247.205 390.857 247.351 391.49 247.643C392.122 247.934 392.64 248.343 393.044 248.869C393.448 249.394 393.699 250.007 393.796 250.708H392.074C391.942 250.197 391.65 249.744 391.198 249.35C390.75 248.951 390.147 248.752 389.388 248.752C388.716 248.752 388.128 248.927 387.622 249.277C387.121 249.623 386.729 250.112 386.447 250.744C386.169 251.372 386.031 252.109 386.031 252.955C386.031 253.822 386.167 254.576 386.44 255.218C386.717 255.86 387.106 256.359 387.607 256.714C388.113 257.069 388.707 257.247 389.388 257.247C389.836 257.247 390.242 257.169 390.607 257.013C390.972 256.857 391.281 256.634 391.534 256.342C391.787 256.05 391.967 255.7 392.074 255.291H393.796C393.699 255.953 393.458 256.549 393.073 257.079C392.694 257.604 392.19 258.023 391.563 258.334C390.94 258.641 390.215 258.794 389.388 258.794ZM398.036 251.817V258.56H396.314V243.614H398.036V249.102H398.182C398.445 248.523 398.839 248.063 399.364 247.723C399.895 247.377 400.6 247.205 401.481 247.205C402.245 247.205 402.914 247.358 403.488 247.664C404.062 247.966 404.507 248.431 404.823 249.058C405.144 249.681 405.305 250.474 405.305 251.438V258.56H403.583V251.554C403.583 250.664 403.351 249.975 402.889 249.489C402.432 248.998 401.797 248.752 400.984 248.752C400.42 248.752 399.914 248.871 399.466 249.109C399.024 249.348 398.673 249.696 398.416 250.153C398.163 250.61 398.036 251.165 398.036 251.817ZM409.711 258.677C409.351 258.677 409.042 258.548 408.784 258.29C408.526 258.032 408.397 257.724 408.397 257.363C408.397 257.003 408.526 256.695 408.784 256.437C409.042 256.179 409.351 256.05 409.711 256.05C410.071 256.05 410.38 256.179 410.638 256.437C410.896 256.695 411.025 257.003 411.025 257.363C411.025 257.602 410.964 257.821 410.842 258.02C410.725 258.22 410.567 258.38 410.368 258.502C410.173 258.619 409.954 258.677 409.711 258.677ZM430.346 248.285C430.186 247.793 429.974 247.353 429.711 246.964C429.453 246.57 429.144 246.234 428.784 245.957C428.429 245.679 428.025 245.468 427.573 245.322C427.12 245.176 426.624 245.103 426.084 245.103C425.199 245.103 424.393 245.332 423.669 245.789C422.944 246.246 422.367 246.92 421.939 247.81C421.511 248.701 421.297 249.793 421.297 251.087C421.297 252.381 421.513 253.474 421.946 254.364C422.379 255.254 422.965 255.928 423.705 256.386C424.445 256.843 425.276 257.072 426.201 257.072C427.057 257.072 427.811 256.889 428.463 256.524C429.12 256.154 429.631 255.634 429.996 254.962C430.366 254.286 430.551 253.491 430.551 252.576L431.105 252.693H426.61V251.087H432.302V252.693C432.302 253.924 432.039 254.994 431.514 255.904C430.993 256.814 430.273 257.519 429.354 258.02C428.439 258.517 427.388 258.765 426.201 258.765C424.878 258.765 423.715 258.453 422.712 257.831C421.715 257.208 420.937 256.322 420.377 255.174C419.822 254.026 419.545 252.664 419.545 251.087C419.545 249.905 419.703 248.842 420.019 247.898C420.341 246.949 420.793 246.142 421.377 245.475C421.961 244.808 422.652 244.298 423.45 243.942C424.247 243.587 425.126 243.41 426.084 243.41C426.872 243.41 427.607 243.529 428.288 243.767C428.974 244.001 429.585 244.334 430.12 244.767C430.66 245.195 431.11 245.709 431.47 246.307C431.83 246.901 432.078 247.56 432.214 248.285H430.346ZM435.168 258.56V247.351H436.832V249.044H436.949C437.153 248.489 437.523 248.039 438.058 247.694C438.594 247.348 439.197 247.175 439.868 247.175C439.995 247.175 440.153 247.178 440.343 247.183C440.532 247.188 440.676 247.195 440.773 247.205V248.956C440.715 248.942 440.581 248.92 440.372 248.89C440.167 248.856 439.951 248.839 439.722 248.839C439.177 248.839 438.691 248.954 438.263 249.182C437.839 249.406 437.504 249.718 437.256 250.117C437.012 250.511 436.891 250.961 436.891 251.467V258.56H435.168ZM447.028 258.794C446.016 258.794 445.128 258.553 444.364 258.071C443.605 257.59 443.011 256.916 442.583 256.05C442.16 255.184 441.948 254.172 441.948 253.014C441.948 251.846 442.16 250.827 442.583 249.956C443.011 249.085 443.605 248.409 444.364 247.927C445.128 247.445 446.016 247.205 447.028 247.205C448.04 247.205 448.925 247.445 449.684 247.927C450.448 248.409 451.042 249.085 451.465 249.956C451.893 250.827 452.107 251.846 452.107 253.014C452.107 254.172 451.893 255.184 451.465 256.05C451.042 256.916 450.448 257.59 449.684 258.071C448.925 258.553 448.04 258.794 447.028 258.794ZM447.028 257.247C447.796 257.247 448.429 257.05 448.925 256.656C449.421 256.261 449.789 255.743 450.027 255.101C450.265 254.459 450.385 253.763 450.385 253.014C450.385 252.265 450.265 251.566 450.027 250.919C449.789 250.272 449.421 249.749 448.925 249.35C448.429 248.951 447.796 248.752 447.028 248.752C446.259 248.752 445.626 248.951 445.13 249.35C444.634 249.749 444.267 250.272 444.028 250.919C443.79 251.566 443.671 252.265 443.671 253.014C443.671 253.763 443.79 254.459 444.028 255.101C444.267 255.743 444.634 256.261 445.13 256.656C445.626 257.05 446.259 257.247 447.028 257.247ZM456.895 258.56L453.479 247.351H455.289L457.712 255.933H457.829L460.222 247.351H462.062L464.426 255.904H464.543L466.966 247.351H468.776L465.36 258.56H463.667L461.215 249.949H461.04L458.588 258.56H456.895ZM470.783 258.677C470.423 258.677 470.114 258.548 469.856 258.29C469.598 258.032 469.469 257.724 469.469 257.363C469.469 257.003 469.598 256.695 469.856 256.437C470.114 256.179 470.423 256.05 470.783 256.05C471.143 256.05 471.452 256.179 471.709 256.437C471.967 256.695 472.096 257.003 472.096 257.363C472.096 257.602 472.035 257.821 471.914 258.02C471.797 258.22 471.639 258.38 471.439 258.502C471.245 258.619 471.026 258.677 470.783 258.677Z" fill="#5956A5"/>
<path d="M217.626 54.7237C217.626 63.5384 210.479 70.6851 201.664 70.6851C192.85 70.6851 185.703 63.5384 185.703 54.7237C185.703 45.9091 192.85 38.7624 201.664 38.7624C210.479 38.7624 217.626 45.9091 217.626 54.7237Z" fill="#E63946"/>
<path d="M204.168 44.142C204.168 45.4767 203.087 46.558 201.752 46.558C200.419 46.558 199.336 45.4767 199.336 44.142C199.336 42.8073 200.419 41.726 201.752 41.726C203.087 41.726 204.168 42.8073 204.168 44.142Z" fill="#FBF9FB"/>
<path d="M204.168 44.142C204.168 45.4767 203.087 46.558 201.752 46.558C200.419 46.558 199.336 45.4767 199.336 44.142C199.336 42.8073 200.419 41.726 201.752 41.726C203.087 41.726 204.168 42.8073 204.168 44.142Z" stroke="#060808" stroke-width="1.38" stroke-miterlimit="10"/>
<path d="M212.709 51.3892C212.709 52.7239 211.628 53.8052 210.293 53.8052C208.96 53.8052 207.877 52.7239 207.877 51.3892C207.877 50.0546 208.96 48.9732 210.293 48.9732C211.628 48.9732 212.709 50.0546 212.709 51.3892Z" fill="#FBF9FB"/>
<path d="M212.709 51.3892C212.709 52.7239 211.628 53.8052 210.293 53.8052C208.96 53.8052 207.877 52.7239 207.877 51.3892C207.877 50.0546 208.96 48.9732 210.293 48.9732C211.628 48.9732 212.709 50.0546 212.709 51.3892Z" stroke="#060808" stroke-width="1.38" stroke-miterlimit="10"/>
<path d="M210.293 61.7424C210.293 63.0771 209.212 64.1584 207.877 64.1584C206.544 64.1584 205.461 63.0771 205.461 61.7424C205.461 60.4078 206.544 59.3264 207.877 59.3264C209.212 59.3264 210.293 60.4078 210.293 61.7424Z" fill="#FBF9FB"/>
<path d="M210.293 61.7424C210.293 63.0771 209.212 64.1584 207.877 64.1584C206.544 64.1584 205.461 63.0771 205.461 61.7424C205.461 60.4078 206.544 59.3264 207.877 59.3264C209.212 59.3264 210.293 60.4078 210.293 61.7424Z" stroke="#060808" stroke-width="1.38" stroke-miterlimit="10"/>
<path d="M197.869 61.7424C197.869 63.0771 196.788 64.1584 195.453 64.1584C194.12 64.1584 193.037 63.0771 193.037 61.7424C193.037 60.4078 194.12 59.3264 195.453 59.3264C196.788 59.3264 197.869 60.4078 197.869 61.7424Z" fill="#FBF9FB"/>
<path d="M197.869 61.7424C197.869 63.0771 196.788 64.1584 195.453 64.1584C194.12 64.1584 193.037 63.0771 193.037 61.7424C193.037 60.4078 194.12 59.3264 195.453 59.3264C196.788 59.3264 197.869 60.4078 197.869 61.7424Z" stroke="#060808" stroke-width="1.38" stroke-miterlimit="10"/>
<path d="M195.453 51.3892C195.453 52.7239 194.372 53.8052 193.037 53.8052C191.704 53.8052 190.621 52.7239 190.621 51.3892C190.621 50.0546 191.704 48.9732 193.037 48.9732C194.372 48.9732 195.453 50.0546 195.453 51.3892Z" fill="#FBF9FB"/>
<path d="M195.453 51.3892C195.453 52.7239 194.372 53.8052 193.037 53.8052C191.704 53.8052 190.621 52.7239 190.621 51.3892C190.621 50.0546 191.704 48.9732 193.037 48.9732C194.372 48.9732 195.453 50.0546 195.453 51.3892Z" stroke="#060808" stroke-width="1.38" stroke-miterlimit="10"/>
<path d="M221.113 112.125L199.633 192.549H229.466L249.861 111.317L221.113 112.125Z" fill="#008181"/>
<path d="M199.631 192.548L239.834 39.4855H268.43L229.464 192.548H199.631Z" fill="#008181"/>
<path d="M376.05 39.4856L335.848 192.548H365.682L404.646 39.4856H376.05Z" fill="#008181"/>
<path d="M290.14 39.4856L249.938 192.548H279.771L318.736 39.4856H290.14Z" fill="#008181"/>
<path d="M508.089 39.4856L540.771 40.5083L474.883 112.124L456.344 192.548H429.111L448.179 111.318L411.391 39.4856L440.004 40.5083L464.515 90.2163" fill="#008181"/>
<path d="M308.914 67.116L326.302 126.296L373.749 74.396L382.773 39.4854H376.05L340.454 82.8907L318.735 39.4854L308.914 40.508V67.116Z" fill="#008181"/>
<path d="M174.576 126.296L157.518 191.244H187.351L203.884 126.296H174.576Z" fill="#008181"/>
<path d="M411.391 44.142L448.179 111.317L429.111 192.549H441.707L461.111 110.821L411.391 39.486" fill="#00A59F"/>
<path d="M174.576 126.296L157.518 191.244L174.576 192.548L193.038 126.24L174.576 126.296Z" fill="#00A59F"/>
<path d="M290.14 39.4856L249.938 192.548H268.429L303.833 39.4856L335.847 103.416L388.6 39.4856H376.049L340.453 82.891L318.736 39.4856L308.915 40.5083" fill="#00A59F"/>
<path d="M239.834 39.4856L199.631 192.548L212.708 191.243L249.938 41.7256L239.834 39.4856Z" fill="#00A59F"/>
<path d="M508.001 36.172C502.038 21.0027 494.174 1.00003 494.174 1.00003L669.262 43.604L565.754 181.315C565.754 181.315 540.998 121.647 540.947 121.525C543.025 126.532 474.21 151.568 469.83 152.885C428.903 165.195 383.567 172.013 340.735 173.248C233.649 176.337 120.51 143.387 43.3848 67.1787C49.0328 72.76 69.3381 75.8174 77.8354 78.5147C160.521 104.755 249.502 120.285 337.017 109.073C349.999 107.411 520.253 67.1507 514.577 52.8987C514.577 52.8987 511.643 45.4374 508.001 36.172Z" fill="#FDD700" stroke="#E6E8E8" stroke-width="1.33333" stroke-miterlimit="10"/>
<path d="M118.295 102.661C126.647 101.447 137.591 101.463 146.187 108.115C157.551 116.91 154.84 129.585 163.89 137.533C175.89 148.074 192.847 136.495 218.212 133.366C263.979 127.721 270.502 157.797 311.142 152.021C343.584 147.41 344.484 127.523 381.478 122.971C407.867 119.725 415.162 128.89 441.811 128.607C461.258 128.402 488.935 123.187 522.691 99.7179" stroke="#060808" stroke-width="3.16133" stroke-miterlimit="10"/>
<path d="M183.612 40.0806C107.248 39.0112 49.2333 38.1992 49.2333 38.1992L47.9707 38.1806L46.3627 39.2659L45.24 40.3566L44.1173 41.4486L42.98 43.6459L41.8267 46.9512L32.5547 76.7086L8.16667 158.281L0.0466716 184.734L0.0159912 186.947L0 188.054L1.092 189.177L2.18266 190.298L3.28933 190.314L69.672 191.243L71.9227 190.169L74.1973 185.773L84.624 152.71L85.7773 149.405L88.0213 147.223L90.2653 145.041L93.6173 142.874L98.0587 141.829L127.941 142.247L129.048 142.262L130.216 137.851L99.228 137.417L97.0147 137.386L94.7853 138.462L92.556 139.538L89.2053 141.705L86.9613 143.887L100.877 98.6966L103.06 100.942L104.151 102.063L105.243 103.186L140.657 103.682L142.933 99.2859L105.304 98.7592L105.351 95.4392L107.641 89.9366L109.917 85.5406L112.161 83.3579L116.635 80.0992L119.971 79.0392L123.307 77.9792L127.733 78.0406L163.164 77.4299L164.271 77.4459L170.083 57.6019L171.221 55.4046L173.465 53.2219L175.709 51.0392L131.441 50.4192L125.892 51.4486L123.663 52.5246L121.433 53.6006L114.747 56.8272L117.023 52.4312L118.144 51.3406L120.389 49.1579L122.617 48.0819L124.847 47.0059L130.396 45.9766L181.321 45.5832L183.607 40.4566L183.612 40.0806Z" fill="#008181"/>
<path d="M96.9367 63.1187C100.175 53.1107 101.533 49.06 101.974 47.7587C102.089 47.4213 102.063 47.0613 101.91 46.74L101.202 45.2747C101.118 45.1027 100.999 44.9493 100.853 44.8267L100.401 44.4453C100.162 44.2453 99.8594 44.132 99.5474 44.128L95.8421 44.076L62.8061 43.6133C62.6527 43.612 62.4994 43.636 62.3527 43.6853L60.7181 44.2387C60.3421 44.3667 60.0421 44.6507 59.8941 45.0187L58.4274 48.68C58.4127 48.7147 58.4007 48.7507 58.3887 48.7867L17.4594 182.547C17.3154 183.02 17.4394 183.535 17.7834 183.889L19.1847 185.329C19.3314 185.48 19.5114 185.595 19.7101 185.664L22.5047 186.639C22.6421 186.687 22.7861 186.713 22.9314 186.715L33.4687 186.863L55.9914 187.177C56.2994 187.183 56.5994 187.081 56.8421 186.892L58.9354 185.267C59.1501 185.099 59.3101 184.871 59.3927 184.612L66.8594 161.429C67.1047 160.664 67.9594 160.28 68.6954 160.604L69.5767 160.992C70.2087 161.271 70.5314 161.98 70.3234 162.64L63.1021 185.532C62.8287 186.397 63.4687 187.283 64.3767 187.295C64.9447 187.303 65.4567 186.956 65.6607 186.427L69.6701 176.015C69.6807 175.987 69.6901 175.959 69.6994 175.929L110.239 45.3907C110.437 44.7533 110.141 44.0653 109.541 43.772L109.162 43.5867C108.418 43.2213 107.522 43.6053 107.273 44.396L101.099 63.972C100.919 64.5427 100.386 64.928 99.7874 64.92L98.2061 64.8973C97.2927 64.8853 96.6554 63.9867 96.9367 63.1187Z" fill="#FBF6F8"/>
<path d="M85.704 115.089L99.6733 69.6155C95.3986 67.9115 90.9093 67.0101 86.3786 66.9461C63.3066 66.6235 44.0186 88.0901 43.648 114.499C43.3666 134.606 54.1173 152.843 70.4946 160.043L85.704 115.089Z" fill="#008181"/>
<path d="M102.108 105.964L92.8363 135.721L92.8203 136.828L97.2803 134.567L100.614 133.617L130.496 134.035L138.615 107.583L105.414 107.117L104.306 107.101L102.108 105.964Z" fill="#008181"/>
<path d="M64.1665 85.7797C62.8572 91.7504 65.9092 97.493 70.9839 98.6064C76.0599 99.7197 81.2359 95.7824 82.5452 89.8117C83.8559 83.841 80.8025 78.097 75.7279 76.9837C70.6532 75.8704 65.4759 79.809 64.1665 85.7797Z" fill="white"/>
<path d="M48.3462 108.804C47.0369 114.775 50.0889 120.517 55.1635 121.631C60.2395 122.744 65.4155 118.807 66.7249 112.836C68.0355 106.865 64.9822 101.121 59.9075 100.008C54.8315 98.8948 49.6555 102.833 48.3462 108.804Z" fill="white"/>
<path d="M77.4997 112.786C77.0957 114.63 78.0384 116.402 79.6051 116.746C81.1717 117.09 82.7691 115.874 83.1744 114.031C83.5784 112.187 82.6357 110.414 81.0691 110.07C79.5024 109.727 77.9037 110.942 77.4997 112.786Z" fill="white"/>
<path d="M75.4255 102.794C75.0215 104.638 75.9642 106.41 77.5309 106.754C79.0975 107.098 80.6949 105.882 81.1002 104.039C81.5042 102.195 80.5615 100.422 78.9949 100.078C77.4282 99.7353 75.8295 100.95 75.4255 102.794Z" fill="white"/>
<path d="M69.7673 111.57C69.3633 113.414 70.306 115.186 71.8727 115.53C73.4393 115.874 75.0367 114.658 75.442 112.816C75.846 110.972 74.9033 109.198 73.3367 108.854C71.77 108.512 70.1713 109.726 69.7673 111.57Z" fill="white"/>
<path d="M72.9646 120.471C72.5606 122.315 73.5033 124.087 75.0699 124.431C76.6366 124.775 78.2339 123.559 78.6393 121.716C79.0433 119.872 78.1006 118.099 76.5339 117.755C74.9673 117.412 73.3686 118.627 72.9646 120.471Z" fill="white"/>
<path d="M56.8286 135.49C55.5193 141.46 58.5713 147.203 63.646 148.316C68.722 149.43 73.898 145.492 75.2073 139.522C76.518 133.551 73.4646 127.807 68.39 126.694C63.3153 125.58 58.138 129.519 56.8286 135.49Z" fill="white"/>
<path d="M94.4429 88.9123L97.1282 80.8736C96.6629 80.6843 96.1802 80.5523 95.6869 80.4789C91.7549 79.8989 87.9576 83.2283 87.2749 87.8549C86.7242 91.5829 88.3389 95.2003 91.2242 96.7029L94.4429 88.9123Z" fill="white"/>
<path d="M20.137 157.895L16.1303 157.839C14.4863 157.816 13.1716 156.464 13.1956 154.82L13.221 153.027C13.2436 151.383 14.5943 150.068 16.2396 150.092L20.245 150.148C21.8903 150.171 23.2036 151.523 23.181 153.167L23.1556 154.959C23.133 156.604 21.781 157.918 20.137 157.895Z" fill="#FBF6F8"/>
<path d="M23.6272 145.767L19.6205 145.711C17.9765 145.689 16.6619 144.337 16.6859 142.693L16.7112 140.899C16.7339 139.255 18.0845 137.941 19.7299 137.965L23.7352 138.021C25.3805 138.043 26.6939 139.395 26.6712 141.039L26.6459 142.831C26.6232 144.477 25.2712 145.79 23.6272 145.767Z" fill="#FBF6F8"/>
<path d="M28.2249 133.655L24.2182 133.599C22.5742 133.577 21.2595 132.225 21.2835 130.581L21.3089 128.787C21.3315 127.143 22.6822 125.829 24.3275 125.853L28.3329 125.909C29.9782 125.931 31.2915 127.283 31.2689 128.927L31.2435 130.719C31.2209 132.365 29.8689 133.678 28.2249 133.655Z" fill="#FBF6F8"/>
<path d="M31.717 121.528L27.7104 121.472C26.0664 121.449 24.7517 120.097 24.7757 118.453L24.801 116.66C24.8237 115.016 26.1744 113.701 27.8197 113.725L31.825 113.781C33.4704 113.804 34.7837 115.156 34.761 116.8L34.7357 118.592C34.713 120.237 33.361 121.551 31.717 121.528Z" fill="#FBF6F8"/>
<path d="M35.2229 108.294L31.2162 108.238C29.5722 108.215 28.2576 106.863 28.2816 105.219L28.3069 103.426C28.3296 101.782 29.6802 100.467 31.3256 100.491L35.3309 100.547C36.9762 100.57 38.2896 101.922 38.2669 103.566L38.2416 105.358C38.2189 107.003 36.8669 108.316 35.2229 108.294Z" fill="#FBF6F8"/>
<path d="M38.7288 95.0595L34.7221 95.0035C33.0781 94.9808 31.7634 93.6288 31.7874 91.9848L31.8128 90.1915C31.8354 88.5475 33.1861 87.2328 34.8314 87.2568L38.8368 87.3128C40.4821 87.3355 41.7954 88.6875 41.7728 90.3315L41.7474 92.1235C41.7248 93.7688 40.3728 95.0821 38.7288 95.0595Z" fill="#FBF6F8"/>
<path d="M43.342 81.8407L39.3354 81.7847C37.6914 81.762 36.3767 80.41 36.4007 78.766L36.426 76.9727C36.4487 75.3287 37.7994 74.014 39.4447 74.038L43.45 74.094C45.0954 74.1167 46.4087 75.4687 46.386 77.1127L46.3607 78.9047C46.338 80.55 44.986 81.8633 43.342 81.8407Z" fill="#FBF6F8"/>
<path d="M46.8323 69.7131L42.8256 69.6571C41.1816 69.6344 39.8669 68.2824 39.8909 66.6384L39.9163 64.8451C39.9389 63.2011 41.2896 61.8864 42.9349 61.9104L46.9403 61.9664C48.5856 61.9891 49.8989 63.3411 49.8763 64.9851L49.8509 66.7771C49.8283 68.4224 48.4763 69.7358 46.8323 69.7131Z" fill="#FBF6F8"/>
<path d="M51.4456 56.4944L47.4389 56.4384C45.7949 56.4157 44.4802 55.0637 44.5042 53.4197L44.5296 51.6264C44.5522 49.9824 45.9029 48.6677 47.5482 48.6917L51.5536 48.7477C53.1989 48.7704 54.5122 50.1224 54.4896 51.7664L54.4642 53.5584C54.4416 55.2037 53.0896 56.5171 51.4456 56.4944Z" fill="#FBF6F8"/>
<path d="M526.884 71.9214L528.145 75.0705L515.108 80.2918L513.847 77.1428L526.884 71.9214ZM527.438 99.7636L516.415 72.2409C515.86 70.8553 515.723 69.5703 516.004 68.386C516.285 67.2016 516.852 66.1704 517.706 65.2923C518.561 64.4143 519.565 63.744 520.72 63.2816C521.633 62.9158 522.408 62.6908 523.044 62.6066C523.68 62.5223 524.165 62.4864 524.499 62.4989L524.715 66.1397C524.5 66.1524 524.206 66.1788 523.833 66.2188C523.469 66.2547 523.02 66.3798 522.485 66.5942C521.257 67.0861 520.494 67.751 520.196 68.5889C519.909 69.4226 520.005 70.4378 520.484 71.6344L531.154 98.2754L527.438 99.7636ZM553.059 78.0282L547.333 63.7315L551.049 62.2433L560.735 86.4281L557.019 87.9163L555.38 83.8225L555.128 83.9234C555.053 85.3785 554.589 86.7761 553.737 88.1161C552.881 89.4456 551.54 90.4761 549.713 91.2076C548.202 91.813 546.726 92.0204 545.285 91.83C543.841 91.629 542.513 90.9913 541.303 89.9167C540.089 88.8317 539.07 87.2605 538.246 85.2031L532.092 69.8357L535.808 68.3475L541.861 83.463C542.568 85.2264 543.624 86.4354 545.031 87.0899C546.449 87.7402 547.929 87.7564 549.472 87.1384C550.396 86.7685 551.241 86.156 552.007 85.3011C552.784 84.442 553.302 83.394 553.562 82.1571C553.832 80.9161 553.664 79.5398 553.059 78.0282ZM565.43 67.6655L571.257 82.2141L567.541 83.7023L557.855 59.5176L561.445 58.0798L562.958 61.8587L563.273 61.7326C563.348 60.2774 563.814 58.946 564.67 57.7383C565.522 56.5201 566.861 55.5452 568.687 54.8137C570.325 54.1579 571.892 53.92 573.39 54.0999C574.883 54.2693 576.241 54.8945 577.466 55.9753C578.686 57.0456 579.709 58.6095 580.532 60.6669L586.687 76.0342L582.971 77.5225L576.917 62.407C576.157 60.5071 575.07 59.2246 573.659 58.5596C572.244 57.8841 570.675 57.8911 568.954 58.5805C567.768 59.0556 566.81 59.7374 566.082 60.6259C565.364 61.5101 564.935 62.5528 564.795 63.754C564.655 64.9551 564.867 66.2589 565.43 67.6655ZM602.811 70.1612C600.796 70.9684 598.813 71.1718 596.862 70.7716C594.907 70.3609 593.12 69.3958 591.5 67.8763C589.876 66.3463 588.552 64.3007 587.526 61.7395C586.508 59.1992 586.061 56.8204 586.184 54.6031C586.307 52.3857 586.941 50.4568 588.087 48.8164C589.233 47.1761 590.824 45.9481 592.86 45.1325C594.435 44.5019 595.784 44.2662 596.907 44.4253C598.037 44.5697 598.976 44.8758 599.723 45.3437C600.477 45.7969 601.075 46.1788 601.516 46.4894L601.831 46.3633L597.064 34.4599L600.78 32.9717L613.694 65.2179L610.104 66.6557L608.616 62.9398L608.175 63.1164C608.079 63.6666 607.913 64.3784 607.678 65.252C607.439 66.1151 606.958 66.9962 606.234 67.8952C605.506 68.7837 604.365 69.539 602.811 70.1612ZM601.978 66.6214C603.469 66.0244 604.573 65.1316 605.29 63.9428C606.004 62.7436 606.351 61.344 606.331 59.744C606.307 58.1335 605.93 56.415 605.198 54.5886C604.475 52.7831 603.58 51.3084 602.513 50.1646C601.442 49.0102 600.24 48.2611 598.909 47.9173C597.573 47.563 596.15 47.6886 594.638 48.2939C593.064 48.9245 591.913 49.8542 591.187 51.0828C590.468 52.2968 590.121 53.6964 590.147 55.2817C590.179 56.8522 590.535 58.4878 591.216 60.1883C591.906 61.9098 592.795 63.3687 593.883 64.5651C594.977 65.7467 596.21 66.5441 597.582 66.9572C598.959 67.3555 600.425 67.2436 601.978 66.6214ZM630.63 36.6564L627.67 38.938C627.237 38.4658 626.711 38.0492 626.092 37.6883C625.478 37.3127 624.756 37.0905 623.924 37.0215C623.093 36.9526 622.137 37.1346 621.055 37.5676C619.575 38.1604 618.479 38.9955 617.765 40.073C617.058 41.1358 616.913 42.1867 617.329 43.2259C617.699 44.1496 618.327 44.7446 619.213 45.0109C620.099 45.2772 621.328 45.3029 622.898 45.0881L626.841 44.5321C629.214 44.1909 631.147 44.3486 632.64 45.0052C634.129 45.6512 635.212 46.8193 635.888 48.5093C636.443 49.8948 636.541 51.2932 636.18 52.7044C635.83 54.1114 635.073 55.4135 633.908 56.6109C632.743 57.8082 631.221 58.7831 629.342 59.5356C626.875 60.5236 624.619 60.8059 622.574 60.3827C620.529 59.9594 618.879 58.8052 617.624 56.9202L620.798 54.626C621.655 55.793 622.681 56.5149 623.876 56.7916C625.082 57.064 626.445 56.8954 627.967 56.2859C629.699 55.5922 630.927 54.6741 631.651 53.5315C632.381 52.3743 632.538 51.276 632.122 50.2369C631.786 49.3971 631.21 48.8115 630.396 48.4801C629.576 48.1382 628.501 48.0694 627.17 48.2736L622.761 48.9432C620.336 49.3054 618.383 49.1436 616.903 48.4576C615.428 47.7569 614.357 46.5721 613.689 44.9031C613.142 43.5385 613.042 42.1779 613.388 40.8213C613.744 39.4605 614.469 38.214 615.562 37.0818C616.666 35.9454 618.069 35.0367 619.769 34.3556C622.162 33.3971 624.251 33.1694 626.036 33.6726C627.832 34.1716 629.363 35.1662 630.63 36.6564Z" fill="#231F20"/>
</svg>
