<svg width="144" height="177" viewBox="0 0 144 177" fill="none" xmlns="http://www.w3.org/2000/svg">
<path d="M139.362 141.81C139.384 142.088 139.292 142.364 139.106 142.58C138.919 142.796 138.652 142.937 138.358 142.973H133.623C129.969 131.611 125.903 122.503 126.881 126.015C128.428 131.546 129.138 137.255 128.991 142.973L119.65 142.852C117.076 123.06 113.01 108.282 113.088 112.764C113.345 130.885 111.981 136.626 110.514 142.731C87.9716 142.392 58.4295 141.592 37.0963 140.551C35.1663 129.601 33.6222 117.779 33.2105 118.578C29.9938 124.489 28.7328 133.307 28.3211 140.115C21.5274 139.751 16.0976 139.315 12.8809 138.879C12.8809 138.879 11.7743 129.698 11.6971 126.766C11.4785 119.095 12.6802 111.447 15.2484 104.164C18.1596 96.9985 21.8234 90.1247 26.1852 83.6447C28.8712 79.3114 31.0211 74.7027 32.5929 69.9087C33.676 66.3972 34.4506 62.8078 34.9089 59.1767C36.5816 45.9011 44.6362 34.9511 57.2457 32.0682C81.8728 11.2341 104.93 22.0873 111.132 39.6266C111.75 41.3467 112.316 43.2847 112.856 45.4166C114.863 53.2657 116.51 63.4162 118.003 71.2654C118.592 74.3425 119.374 77.3841 120.345 80.3742C125.671 94.6673 138.77 103.413 139.362 141.81Z" fill="#263238"/>
<path d="M51.6631 35.2105C47.5298 36.9093 43.9348 39.5877 41.2287 42.9843C38.5227 46.3809 36.798 50.3799 36.2229 54.591C35.5633 60.1896 34.1717 65.6901 32.0798 70.9675C29.4538 76.0811 26.0369 80.7999 21.9407 84.97C15.5831 91.4324 11.4324 99.5427 10.0261 108.251C8.3315 118.356 8.75109 128.676 11.2613 138.63C9.30632 128.196 9.48973 117.506 11.8017 107.136C14.1177 96.6952 20.3967 90.4208 26.8816 82.7655C32.099 76.692 35.5487 69.4455 36.892 61.7376C37.7669 56.8924 37.9471 52.0473 40.1087 47.5413C42.8227 42.7564 47.0003 38.8489 52.1006 36.3249C52.8211 35.8161 52.3064 34.8713 51.6631 35.2105Z" fill="#263238"/>
<path d="M133.373 96.1397C128.021 88.2179 122.333 81.3863 119.451 71.7929C116.878 63.0474 115.54 53.9144 112.838 45.1447C112.838 44.9993 112.58 45.1447 112.632 45.1447C116.672 60.6249 116.826 75.984 125.885 89.3565C130.8 96.6242 135.741 103.359 138.751 111.886C141.824 120.844 143.192 130.243 142.792 139.649C142.792 139.988 143.229 140.012 143.255 139.649C145.485 124.504 141.987 109.102 133.373 96.1397Z" fill="#263238"/>
<path d="M127.13 156.614C125.457 157.898 123.733 159.036 121.983 160.223C120.696 161.071 119.41 161.895 118.02 162.646L117.763 162.791C116.502 163.542 115.189 164.245 113.877 164.923L112.153 165.819C108.297 167.772 104.298 169.464 100.186 170.883C99.2258 171.222 98.2479 171.537 97.2528 171.827C94.9625 172.53 92.5951 173.16 90.2018 173.717L88.2718 174.129C87.9115 173.475 87.5256 172.845 87.191 172.215C87.0167 171.951 86.8619 171.676 86.7278 171.391C85.8528 169.865 85.0036 168.387 84.1544 166.958C83.9853 166.691 83.8307 166.416 83.6912 166.134C82.842 164.608 82.0443 163.13 81.298 161.725C81.1436 161.459 80.9892 161.192 80.8605 160.926C80.0113 159.351 79.2393 157.849 78.5188 156.444C78.3644 156.178 78.2357 155.911 78.107 155.645C77.3007 154.03 76.5802 152.552 75.9454 151.211C75.8167 150.945 75.6881 150.678 75.5851 150.412V150.145C75.0447 148.958 74.4271 147.553 73.7838 145.954C73.7838 145.688 73.5522 145.397 73.4235 145.106C73.0118 144.137 72.6 143.096 72.214 142.006C72.0339 141.569 71.8537 141.133 71.6993 140.673L71.3905 139.849C70.8759 138.396 70.3355 136.894 69.8465 135.368C69.8465 135.101 69.6921 134.835 69.5892 134.544C69.126 133.042 68.6885 131.54 68.3282 130.062C68.3282 129.796 68.1738 129.529 68.1223 129.263V128.948C67.7679 127.566 67.493 126.167 67.2989 124.757C67.231 124.486 67.1879 124.211 67.1702 123.933C66.9167 122.444 66.8219 120.934 66.8871 119.427C66.8607 119.153 66.8607 118.878 66.8871 118.604C66.896 116.939 67.4635 115.319 68.5084 113.976C68.7899 113.651 69.1191 113.366 69.4863 113.129L69.9237 112.935L70.4126 112.741H70.5671H70.6957C71.8411 112.513 73.0244 112.513 74.1698 112.741L75.0962 112.983C75.5423 113.095 75.9806 113.232 76.4086 113.395C78.896 114.33 81.2688 115.516 83.4854 116.932C84.7978 117.707 86.2131 118.604 87.7057 119.645C96.0232 126.019 103.817 132.975 111.02 140.455C116.27 145.494 121.751 151.066 127.13 156.614Z" fill="#EB9481"/>
<path d="M130.172 154.285C129.169 155.085 128.165 155.86 127.11 156.708C125.437 157.992 123.713 159.13 121.963 160.317C120.677 161.165 119.39 161.989 118 162.74L117.743 162.885C116.482 163.636 115.17 164.339 113.857 165.017L112.133 165.914C108.274 167.833 104.275 169.493 100.167 170.88C99.2063 171.219 98.2284 171.534 97.2334 171.825C94.9431 172.527 92.5756 173.157 90.1824 173.714L88.2523 174.126L86.5539 174.465C86.1422 173.738 85.7562 173.012 85.3702 172.285C85.2623 172.033 85.1332 171.79 84.9842 171.558L83.8777 169.45L82.6424 167.028C82.488 166.761 82.3594 166.495 82.2307 166.228C81.4587 164.726 80.6867 163.249 79.9661 161.795L79.5801 160.996L77.5472 156.95C77.4847 156.833 77.433 156.712 77.3927 156.587L77.0068 155.787C76.2605 154.261 75.5399 152.783 74.8709 151.354L74.4849 150.554L73.7129 148.931L72.4519 146.097C72.4519 145.83 72.2203 145.54 72.0916 145.273C71.7056 144.401 71.3453 143.577 71.0108 142.851L70.8564 142.487C70.8564 142.487 70.8564 142.245 70.7277 142.124C70.7277 141.857 70.4961 141.591 70.3932 141.349L70.2388 140.888C70.1101 140.622 70.0072 140.355 69.9043 140.089V139.895C69.3124 138.393 68.772 136.964 68.3345 135.607C68.3345 135.607 68.1801 135.123 68.0772 134.88C67.5625 133.306 67.125 131.804 66.7905 130.399C66.7905 130.132 66.7905 129.866 66.6104 129.599C66.4302 128.848 66.2758 128.146 66.1729 127.443C66.1729 126.934 65.9928 126.45 65.9156 125.965C65.9282 125.82 65.9282 125.674 65.9156 125.529C65.9156 125.384 65.9156 125.239 65.9156 125.093C65.8901 124.827 65.8901 124.56 65.9156 124.294C65.928 124.157 65.928 124.019 65.9156 123.882C65.9156 123.761 65.9156 123.616 65.9156 123.494C65.9156 123.373 65.9156 122.743 65.9156 122.38C65.9192 121.505 65.9794 120.631 66.0957 119.764C66.0957 119.473 66.0957 119.182 66.2501 118.94C66.5316 117.25 67.3477 115.68 68.5918 114.434L68.772 114.289C69.14 113.943 69.566 113.656 70.0329 113.441L70.4704 113.247L70.9593 113.053H71.2167H71.3454C71.7423 112.947 72.1464 112.866 72.5548 112.811C73.1799 112.761 73.8083 112.761 74.4334 112.811C76.1961 112.996 77.926 113.395 79.5801 113.998C81.1537 114.541 82.6771 115.206 84.1349 115.984C89.0069 118.523 93.5715 121.553 97.7481 125.021C102.123 128.533 106.884 132.724 111.824 137.133C117.846 142.245 124.099 148.301 130.172 154.285Z" fill="#FFC727"/>
<path opacity="0.1" d="M121.943 160.215C120.657 161.063 119.37 161.887 117.981 162.638L117.723 162.783C116.462 163.534 115.15 164.237 113.837 164.915L112.113 165.812C108.266 167.763 104.275 169.455 100.173 170.875C99.2121 171.214 98.2342 171.529 97.2392 171.819C94.9489 172.522 92.5814 173.152 90.1882 173.709L88.2582 174.121L86.5597 174.46C86.148 173.733 85.762 173.007 85.376 172.28C85.2473 172.038 85.1187 171.795 84.9643 171.553L83.8577 169.445C83.446 168.646 83.0085 167.871 82.5968 167.023C82.4681 166.756 82.3395 166.49 82.1851 166.223C81.413 164.721 80.641 163.244 79.9205 161.79L79.5345 160.991L77.5015 156.945L77.3214 156.582L76.9354 155.782C76.1891 154.256 75.4685 152.778 74.7995 151.349L74.4135 150.549L73.6415 148.926L72.3548 146.092C72.3548 145.825 72.1232 145.535 71.9945 145.268C71.6085 144.396 71.2482 143.572 70.9137 142.846L70.7593 142.482C70.6859 142.37 70.6337 142.247 70.6049 142.119C70.6049 141.852 70.3733 141.586 70.2704 141.344L70.0902 140.908C70.0902 140.617 69.8586 140.35 69.7557 140.084V139.89C69.1638 138.388 68.6234 136.959 68.1859 135.602C68.0853 135.367 68.0077 135.124 67.9543 134.875C67.4396 133.301 67.0022 131.799 66.6676 130.394C66.6676 130.127 66.6676 129.861 66.4875 129.594C66.3074 128.843 66.153 128.141 66.05 127.438C66.05 126.929 65.8699 126.445 65.7927 125.96C65.8053 125.815 65.8053 125.669 65.7927 125.524C65.78 125.379 65.78 125.233 65.7927 125.088V124.289C65.7803 124.152 65.7803 124.014 65.7927 123.877C65.7927 123.756 65.7927 123.61 65.7927 123.489C65.7927 123.368 65.7927 122.738 65.7927 122.375C65.7964 121.5 65.8565 120.626 65.9728 119.759C65.9728 119.468 65.9728 119.177 66.1272 118.935C66.4087 117.245 67.2248 115.675 68.469 114.429L68.6491 114.284C69.0305 113.953 69.4541 113.668 69.9101 113.436L70.3476 113.242L70.9909 113.024H71.1196C71.5165 112.917 71.9205 112.837 72.329 112.782C72.9541 112.732 73.5825 112.732 74.2076 112.782L74.5936 113.169L74.8767 113.436L75.6744 114.235L80.0491 118.62L80.8726 119.419L84.1923 122.738L85.2216 123.732L86.0193 124.531L90.4198 128.916L91.1918 129.691L95.5665 134.052L96.3642 134.851L99.4266 137.879L104.831 143.282L121.943 160.215Z" fill="black"/>
<path d="M117.735 162.812C116.475 163.563 115.162 164.266 113.85 164.944L112.126 165.841C108.277 167.784 104.287 169.468 100.185 170.88C99.2244 171.219 98.2464 171.534 97.2514 171.824C94.9611 172.527 92.5936 173.157 90.2004 173.714L88.2704 174.126L86.572 174.465C72.7633 177.155 58.4947 176.949 44.7805 173.859L41.8469 173.157C40.6117 172.842 39.4022 172.503 38.1927 172.139C37.9363 172.092 37.6861 172.019 37.4464 171.921L36.8289 171.728C36.7627 171.752 36.6892 171.752 36.623 171.728C34.0496 170.977 31.7336 170.104 29.3661 169.16L27.5132 168.384C24.5545 167.141 21.6682 165.75 18.8667 164.218L17.5286 163.467L16.2419 162.74C14.7494 161.868 13.3083 160.971 11.8672 160.027L12.2532 159.082C12.3819 158.815 12.4848 158.549 12.6135 158.258C13.2568 156.708 13.9259 155.157 14.595 153.655C14.6994 153.375 14.8197 153.1 14.9553 152.831C15.6243 151.257 16.3449 149.706 17.0654 148.204C17.1941 147.914 17.3227 147.647 17.4771 147.356C18.2234 145.782 18.9954 144.231 19.7674 142.754C19.8977 142.464 20.0437 142.181 20.2049 141.906L21.2857 139.895C21.7747 138.999 22.2636 138.102 22.7525 137.254C22.7429 137.182 22.7429 137.109 22.7525 137.036C22.7855 136.959 22.8288 136.886 22.8812 136.818L23.1385 136.406C24.0392 134.808 24.9914 133.257 25.9435 131.804C26.1136 131.51 26.3027 131.227 26.5096 130.956C27.5905 129.284 28.697 127.734 29.8293 126.256C30.0206 125.966 30.2357 125.691 30.4726 125.432C31.2189 124.487 31.9909 123.567 32.7887 122.719C33.0932 122.347 33.4197 121.991 33.7665 121.653C34.0207 121.361 34.2958 121.086 34.59 120.829L35.0275 120.393L35.465 119.981C37.0923 118.384 38.8662 116.925 40.7661 115.621C40.9634 115.454 41.1791 115.308 41.4094 115.185C41.6156 115.018 41.8399 114.872 42.0785 114.749L42.7733 114.337C47.1007 111.591 52.0733 109.878 57.2614 109.346C63.1705 108.7 69.1509 109.711 74.4514 112.253C74.8374 112.447 75.2235 112.617 75.5837 112.835C75.8065 112.933 76.0215 113.047 76.2271 113.174H76.3815C76.5794 113.273 76.7688 113.386 76.9476 113.513C78.3334 114.322 79.6576 115.22 80.9106 116.202C81.5095 116.713 82.0686 117.263 82.5833 117.85L82.9435 118.237L83.3038 118.625C84.3846 119.763 85.6456 121.193 87.1639 122.961L87.4727 123.325L87.8072 123.736L91.5129 128.146L92.1562 128.921C93.3142 130.326 94.4979 131.779 95.7331 133.33C95.8247 133.474 95.928 133.612 96.042 133.742L96.3508 134.129C97.1743 135.123 97.972 136.14 98.9242 137.182L99.9792 138.538C100.159 138.805 100.391 139.071 100.597 139.338C101.446 140.404 102.27 141.47 103.17 142.56L104.071 143.723L104.431 144.183C105.641 145.758 106.824 147.332 108.034 149.028C108.13 149.191 108.242 149.345 108.368 149.488L108.6 149.803C109.758 151.402 110.942 153.001 112.074 154.648C113.206 156.296 114.39 157.895 115.471 159.494L115.754 159.881L116.011 160.293C116.655 161.189 117.195 162.013 117.735 162.812Z" fill="#FFC727"/>
<path opacity="0.1" d="M61.5786 118.764H60.4978C60.4978 119.031 60.4978 119.297 60.4978 119.588H61.6043L65.3872 119.442C65.3872 119.152 65.3872 118.861 65.5416 118.619L61.5786 118.764ZM65.2328 123.973H62.4793C62.7195 124.231 62.9768 124.498 63.2513 124.772H65.31L65.2328 123.973ZM61.5786 118.764H60.4978C60.4978 119.031 60.4978 119.297 60.4978 119.588H61.6043L65.3872 119.442C65.3872 119.152 65.3872 118.861 65.5416 118.619L61.5786 118.764ZM61.5786 118.764H60.4978C60.4978 119.031 60.4978 119.297 60.4978 119.588H61.6043L65.3872 119.442C65.3872 119.152 65.3872 118.861 65.5416 118.619L61.5786 118.764ZM61.5786 118.764H60.4978C60.4978 119.031 60.4978 119.297 60.4978 119.588H61.6043L65.3872 119.442C65.3872 119.152 65.3872 118.861 65.5416 118.619L61.5786 118.764ZM76.4784 113.265H76.324L75.7321 112.926H74.4454L69.2987 113.12L60.8066 113.459H59.6743L56.4576 113.604L44.5944 114.064H43.0761H42.896L42.2012 114.476C41.9626 114.599 41.7383 114.745 41.5321 114.912H43.0761L56.2517 114.404L59.9317 114.258H61.0382L67.9348 113.992H68.2436L75.2174 113.725H76.9673C76.8098 113.558 76.6376 113.404 76.4527 113.265H76.4784ZM60.4978 118.813C60.4978 119.079 60.4978 119.346 60.4978 119.636H61.6043L65.3872 119.491C65.3872 119.2 65.3872 118.91 65.5416 118.667L61.6301 118.813H60.4978ZM61.5786 118.813H60.4978C60.4978 119.079 60.4978 119.346 60.4978 119.636H61.6043L65.3872 119.491C65.3872 119.2 65.3872 118.91 65.5416 118.667L61.5786 118.813ZM61.5786 118.813H60.4978C60.4978 119.079 60.4978 119.346 60.4978 119.636H61.6043L65.3872 119.491C65.3872 119.2 65.3872 118.91 65.5416 118.667L61.5786 118.813ZM61.5786 118.813H60.4978C60.4978 119.079 60.4978 119.346 60.4978 119.636H61.6043L65.3872 119.491C65.3872 119.2 65.3872 118.91 65.5416 118.667L61.5786 118.813ZM65.2328 124.021H62.4793C62.7195 124.28 62.9768 124.546 63.2513 124.821H65.31L65.2328 124.021ZM83.0662 118.377L82.7059 117.989H79.6694L66.8025 118.498H65.5931L61.6815 118.643H60.6007H58.3876L36.4368 119.515H35.7163L35.2788 119.927L34.8414 120.363H35.356L58.9795 119.442H60.575H61.6815L65.4644 119.297H66.7768L80.6215 118.764L83.5552 118.643L83.0662 118.377ZM58.0274 129.69L35.3303 130.586C35.3303 130.853 35.3303 131.119 35.3303 131.41L57.6156 130.514H59.2626C59.2626 130.247 59.417 129.956 59.5199 129.69H58.0274ZM58.0274 129.69L35.3303 130.586C35.3303 130.853 35.3303 131.119 35.3303 131.41L57.6156 130.514H59.2626C59.2626 130.247 59.417 129.956 59.5199 129.69H58.0274ZM58.0274 129.69L35.3303 130.586C35.3303 130.853 35.3303 131.119 35.3303 131.41L57.6156 130.514H59.2626C59.2626 130.247 59.417 129.956 59.5199 129.69H58.0274ZM58.0274 129.69L35.3303 130.586C35.3303 130.853 35.3303 131.119 35.3303 131.41L57.6156 130.514H59.2626C59.2626 130.247 59.417 129.956 59.5199 129.69H58.0274ZM87.621 123.561L87.338 123.197H84.7646H83.8125L66.854 123.852H65.1813H62.4278H60.9095H59.5971L34.4554 124.845L30.5181 124.99C30.2811 125.248 30.066 125.524 29.8747 125.814H30.338L34.6355 125.644L59.4684 124.699H60.8066H63.2513H65.31H67.0341L83.864 124.045H85.6138H87.9556C87.8217 123.872 87.7094 123.685 87.621 123.488V123.561ZM35.3303 130.586C35.3303 130.853 35.3303 131.119 35.3303 131.41L57.6156 130.514H59.2626C59.2626 130.247 59.417 129.956 59.5199 129.69H57.8987L35.3303 130.586ZM58.0274 129.69L35.3303 130.586C35.3303 130.853 35.3303 131.119 35.3303 131.41L57.6156 130.514H59.2626C59.2626 130.247 59.417 129.956 59.5199 129.69H58.0274ZM58.0274 129.69L35.3303 130.586C35.3303 130.853 35.3303 131.119 35.3303 131.41L57.6156 130.514H59.2626C59.2626 130.247 59.417 129.956 59.5199 129.69H58.0274ZM58.0274 129.69L35.3303 130.586C35.3303 130.853 35.3303 131.119 35.3303 131.41L57.6156 130.514H59.2626C59.2626 130.247 59.417 129.956 59.5199 129.69H58.0274ZM91.687 128.382H90.0143L83.6324 128.624L68.1922 129.23H67.8319H65.9791L59.5457 129.496H57.9244L35.2273 130.392L29.2314 130.611H26.4264C26.2195 130.882 26.0304 131.165 25.8603 131.458L29.077 131.337L35.356 131.095L57.6414 130.199H59.2883L66.1592 129.908H68.0377H69.2987L83.3493 129.351L90.6576 129.084H92.2016C92.0172 128.834 91.8455 128.575 91.687 128.309V128.382ZM96.2418 133.978C96.1279 133.848 96.0247 133.711 95.933 133.566H95.161L69.2987 134.535H67.4716L57.7958 134.923H55.8657L36.1023 135.674L28.5109 135.964L23.0811 136.182C23.002 136.315 22.9332 136.452 22.8752 136.594C22.7465 136.812 22.7465 136.812 22.6178 137.03L28.4594 136.812L36.1795 136.497L55.4798 135.746H57.4098L67.7032 135.359H69.5046L95.8043 134.341H96.3962L96.2418 133.978ZM100.076 138.823L71.203 139.937H69.5303L55.5827 140.47H53.524L42.9474 140.882H42.793L20.1217 141.754C19.9605 142.03 19.8145 142.313 19.6842 142.602L53.138 141.294H55.1452L69.8134 140.737H71.4603L100.642 139.598C100.488 139.235 100.179 138.968 100.179 138.702L100.076 138.823ZM104.451 144.468L104.091 144.007L73.2102 145.194H71.7177L52.7777 145.921H50.822L17.3682 147.229C17.2138 147.52 17.0851 147.787 16.9565 148.077L50.4102 146.793H52.3402L72.1037 146.018H73.5705L104.657 144.807L104.451 144.468ZM108.388 149.7C108.262 149.557 108.15 149.403 108.054 149.24L75.5262 150.5H74.1624L49.8183 151.445H49.5867H48.017L14.8463 152.729C14.7107 152.997 14.5905 153.272 14.486 153.552L47.631 152.268H49.0978H49.4066L74.5741 151.299H75.9123L108.645 150.015C108.535 149.884 108.448 149.737 108.388 149.579V149.7ZM112.12 154.812L111.811 154.424L78.0481 155.733H76.6842L46.8847 156.895H46.1384H45.0319L12.3759 158.155C12.3759 158.446 12.1443 158.712 12.0156 158.979L44.5687 157.719H45.598H46.3186L76.9673 156.532H78.3312L112.248 155.224L112.12 154.812ZM115.799 160.045L115.516 159.657L80.8016 161.014H79.3348L45.3922 162.346H42.0725L17.4197 163.315L18.7578 164.066L41.5836 163.17H44.5429L79.7466 161.789H81.2391L116.057 160.432L115.799 160.045ZM79.3348 161.062L45.3922 162.395H43.282L42.7673 163.218H44.5429L79.7466 161.837L79.3348 161.062ZM83.6324 166.222H82.0368L40.7343 167.821H38.8558L27.4043 168.257L29.2572 169.032L38.3411 168.669H39.3447H40.2197L82.4486 167.022H84.0956L112.12 165.932L113.844 165.035L83.6324 166.222ZM43.7709 163.267H44.5172L79.7208 161.886L79.3348 161.086L45.3922 162.419H43.282L42.7673 163.243H43.7967L43.7709 163.267ZM79.3348 161.062L45.3922 162.395H43.282L42.7673 163.218H44.5429L79.7466 161.837L79.3348 161.062ZM86.5917 171.479H84.8161L41.738 173.175L44.6716 173.878L85.2536 172.303H87.0549L97.1168 171.915C98.1118 171.625 99.0897 171.31 100.05 170.97L86.5917 171.479ZM82.0111 166.295L40.7086 167.894C40.5285 168.185 40.3741 168.475 40.194 168.742L82.4229 167.094C82.2942 166.707 82.1655 166.44 82.0111 166.174V166.295ZM86.5917 171.479H84.8161L41.738 173.175L44.6716 173.878L85.2536 172.303H87.0549C86.8749 172 86.7201 171.684 86.5917 171.358V171.479ZM82.0111 166.295L40.7086 167.894C40.5285 168.185 40.3741 168.475 40.194 168.742L82.4229 167.094C82.2942 166.707 82.1655 166.44 82.0111 166.174V166.295ZM86.5917 171.479H84.8161L41.738 173.175L44.6716 173.878L85.2536 172.303H87.0549C86.8749 172 86.7201 171.684 86.5917 171.358V171.479Z" fill="black"/>
<path d="M60.4562 118.819C60.4562 119.086 60.4562 119.352 60.4562 119.643C60.4053 120.252 60.3193 120.859 60.1988 121.46C60.0695 122.381 59.8891 123.294 59.6584 124.197C59.6584 124.464 59.5298 124.73 59.4783 125.021C59.0923 126.45 58.6291 127.977 58.0629 129.624C58.0629 129.89 57.8828 130.157 57.7799 130.448C57.2652 131.901 56.6733 133.427 55.9785 135.05L55.644 135.874C55.0006 137.352 54.3058 138.902 53.5338 140.525L53.1478 141.349V141.519C52.4273 143.045 51.681 144.523 50.9605 145.952C50.8318 146.243 50.6774 146.533 50.523 146.824C49.7253 148.423 48.9532 149.949 48.1297 151.451C48.0138 151.735 47.8762 152.01 47.718 152.275C46.8945 153.874 46.071 155.424 45.1446 156.902L44.6814 157.726C43.8065 159.349 42.9058 160.899 42.1081 162.401C41.9605 162.684 41.7973 162.959 41.6191 163.225C40.6927 164.848 39.7921 166.398 38.8914 167.852L38.3767 168.7C37.7591 169.717 37.1672 170.686 36.5496 171.631C33.9762 170.88 31.6602 170.008 29.2927 169.063L27.4399 168.288C24.4811 167.045 21.5949 165.654 18.7934 164.121L17.4552 163.37L16.1686 162.643C14.676 161.771 13.2349 160.875 11.7939 159.93C8.47738 157.787 5.32181 155.432 2.34961 152.881C6.59566 148.205 10.9189 143.65 15.2164 139.266C19.514 134.881 24.5063 130.084 29.0869 125.893L30.8882 124.294C31.583 123.664 32.2521 123.083 32.9212 122.526L33.9248 121.678L35.2372 120.612L36.318 119.764C38.5004 118.028 40.7858 116.411 43.1632 114.919L44.6043 114.071C50.0083 110.97 54.2801 109.904 57.0336 110.946C58.1936 111.407 59.1168 112.276 59.607 113.368C59.7492 113.623 59.8614 113.891 59.9415 114.168C60.4135 115.676 60.588 117.252 60.4562 118.819Z" fill="#EB9481"/>
<path d="M61.5724 118.771C61.5724 119.038 61.5724 119.329 61.5724 119.595C61.5234 120.634 61.4116 121.669 61.2378 122.696C61.2378 123.18 61.0835 123.665 60.9805 124.15L60.8261 124.973C60.4916 126.548 60.1056 128.122 59.6938 129.576C59.6938 129.843 59.5137 130.133 59.4365 130.4C58.8961 132.192 58.3557 133.791 57.9182 134.978C57.7895 135.269 57.6866 135.56 57.5837 135.802C57.4807 136.044 57.2234 136.795 57.1205 137.038C56.7087 138.055 56.2198 139.194 55.6022 140.429C55.6022 140.696 55.3448 140.986 55.2162 141.277V141.422C54.5471 142.827 53.7751 144.305 52.9259 145.88L52.4627 146.752C51.7164 148.133 50.9186 149.562 50.0952 151.04C50.0116 151.144 49.9425 151.258 49.8893 151.379C49.7112 151.645 49.548 151.92 49.4004 152.203L46.6983 156.83L46.2094 157.678L43.3787 162.353L42.864 163.177C41.9119 164.752 40.934 166.302 39.9819 167.804L39.4414 168.676C38.7466 169.766 38.0776 170.857 37.4342 171.898L36.8166 171.704C36.7504 171.729 36.6769 171.729 36.6108 171.704C34.0374 170.953 31.7213 170.081 29.3539 169.137L27.501 168.361C24.5423 167.118 21.656 165.727 18.8545 164.195L17.5164 163.444L16.2297 162.717C14.7372 161.845 13.296 160.948 11.855 160.003C8.53849 157.861 5.38293 155.505 2.41072 152.954C1.79311 152.469 1.20125 151.936 0.609375 151.403C4.67529 146.897 8.76693 142.609 12.7814 138.612C18.7635 132.564 25.1684 126.899 31.953 121.654L33.7286 120.346C35.0667 119.377 36.302 118.481 37.6144 117.657C38.9268 116.833 39.9047 116.179 40.9855 115.574L41.706 115.138L43.1728 114.29C49.9665 110.535 54.4184 109.445 57.2749 110.317C58.1188 110.539 58.8914 110.953 59.5243 111.524C60.1573 112.094 60.6309 112.803 60.9033 113.587C61.032 113.854 61.1092 114.12 61.2121 114.387C61.5616 115.823 61.683 117.301 61.5724 118.771Z" fill="#FFC727"/>
<path d="M56.2324 115.162C56.2324 117.585 67.6067 133.622 79.7787 133.622C86.1349 133.622 83.2013 117.609 83.2013 117.609L83.7932 116.301L92.0279 98.0103L71.0035 79.5261L67.9412 77.1035C67.9412 77.1035 66.037 82.2394 63.7209 88.6834L63.4121 89.5798C63.2577 89.9431 63.1291 90.2823 63.0004 90.6214C62.6658 91.5905 62.3056 92.5595 61.9453 93.5528C61.585 94.546 61.4306 95.0063 61.199 95.8057L60.427 98.2283C58.6115 103.774 57.2099 109.432 56.2324 115.162Z" fill="#EB9481"/>
<path d="M63.7344 88.5131C64.7394 94.2251 67.0561 99.662 70.5229 104.444C73.9896 109.227 78.523 113.24 83.8067 116.203L92.0414 97.9126L71.017 79.4284L67.9547 77.0059C67.9547 77.0059 66.0504 82.0448 63.7344 88.5131Z" fill="#263238"/>
<path d="M119.402 61.8608C126.17 96.1644 105.12 103.868 97.2455 105.225C90.1172 106.46 65.6445 109.828 55.1452 76.372C44.6459 42.9164 59.4427 29.1077 75.7321 25.4981C92.0215 21.8885 112.634 27.5088 119.402 61.8608Z" fill="#EB9481"/>
<path d="M107.048 55.6367C106.199 55.6367 105.375 55.6367 104.475 55.6367C103.592 55.7731 102.686 55.6282 101.901 55.2249C101.677 55.0558 101.517 54.8221 101.447 54.5595C101.378 54.2969 101.401 54.02 101.515 53.7713C101.831 53.31 102.271 52.9365 102.792 52.6894C103.312 52.4423 103.893 52.3308 104.475 52.3662C105.666 52.2597 106.857 52.5702 107.82 53.2384C108.053 53.4022 108.227 53.6297 108.318 53.8899C108.409 54.1501 108.412 54.4304 108.328 54.6926C108.243 54.9547 108.075 55.186 107.846 55.3549C107.617 55.5239 107.338 55.6223 107.048 55.6367Z" fill="#263238"/>
<path d="M83.0161 61.2829C83.8139 60.9922 84.5345 60.6046 85.3065 60.2412C86.1833 59.9919 86.9449 59.4712 87.4681 58.7635C87.5882 58.5119 87.6154 58.2298 87.5454 57.962C87.4755 57.6942 87.3124 57.4561 87.0821 57.2857C86.5792 57.0066 86.006 56.8594 85.4222 56.8594C84.8384 56.8594 84.2653 57.0066 83.7624 57.2857C82.6452 57.6967 81.7288 58.4818 81.1891 59.4902C81.0686 59.7338 81.029 60.0059 81.0757 60.271C81.1224 60.536 81.2531 60.7815 81.4507 60.9754C81.6483 61.1693 81.9035 61.3024 82.1829 61.3573C82.4623 61.4121 82.7527 61.3862 83.0161 61.2829Z" fill="#263238"/>
<path d="M90.3588 68.6953C90.3588 68.6953 90.2044 68.8406 90.2301 68.9375C90.9507 71.2148 91.3624 73.928 89.3809 75.2604C89.3809 75.2604 89.3809 75.4058 89.3809 75.3816C92.0314 74.3399 91.4138 70.7303 90.3588 68.6953Z" fill="#263238"/>
<path d="M87.5215 66.8311C83.507 67.5336 85.2827 75.0194 88.9883 74.3653C92.694 73.7112 90.8668 66.2497 87.5215 66.8311Z" fill="#263238"/>
<path d="M86.043 67.5542C85.4512 68.1114 84.9365 69.0077 84.113 69.2742C83.2895 69.5407 82.2601 68.9351 81.5396 68.3052C81.5396 68.3052 81.4109 68.3052 81.5396 68.4263C81.8484 69.8556 82.8006 71.2123 84.4732 71.0911C86.1459 70.97 86.7893 69.468 86.815 67.9418C86.6091 67.6753 86.2746 67.3119 86.043 67.5542Z" fill="#263238"/>
<path d="M104.465 65.1797C104.465 65.1797 104.696 65.1797 104.722 65.3493C105.16 67.7719 106.112 70.1944 108.505 70.6063V70.7516C105.7 70.9212 104.516 67.4569 104.465 65.1797Z" fill="#263238"/>
<path d="M106.081 62.3041C109.993 61.214 112.026 68.6513 108.398 69.5718C104.769 70.4924 102.736 63.2247 106.081 62.3041Z" fill="#263238"/>
<path d="M107.898 62.3988C108.618 62.6411 109.442 63.1983 110.188 63.0771C110.934 62.956 111.475 61.9628 111.835 61.0664C111.835 61.0664 111.835 61.0664 111.964 61.0664C112.401 62.4715 112.298 64.0704 110.934 64.7003C109.57 65.3301 108.361 64.2884 107.615 62.956C107.486 62.7622 107.589 62.3019 107.898 62.3988Z" fill="#263238"/>
<path d="M95.6269 86.842C96.3217 87.2781 97.0679 87.9322 97.9944 87.8595C98.9233 87.6952 99.802 87.3395 100.568 86.8178C100.568 86.8178 100.748 86.8178 100.696 86.8178C100.428 87.3354 100.016 87.7753 99.5045 88.0908C98.9926 88.4064 98.3998 88.5859 97.7885 88.6105C97.254 88.5851 96.7411 88.4034 96.3214 88.0908C95.9016 87.7782 95.5959 87.3501 95.4467 86.8663C95.3438 86.842 95.524 86.7693 95.6269 86.842Z" fill="#263238"/>
<path d="M103.799 76.1821C103.799 76.1821 105.163 79.5252 105.575 81.1726C105.575 81.3179 105.214 81.4875 104.648 81.6329C103.226 82.2207 101.659 82.4278 100.12 82.2311C98.5806 82.0345 97.1289 81.4419 95.9245 80.5185C95.8835 80.4928 95.8551 80.4528 95.8454 80.4074C95.8357 80.3619 95.8457 80.3148 95.873 80.2762C95.9003 80.2377 95.9427 80.2109 95.991 80.2018C96.0393 80.1927 96.0894 80.2021 96.1303 80.2278C98.6967 81.153 101.51 81.2803 104.159 80.5911C104.159 80.1066 101.586 74.9465 101.869 74.8739C103.244 74.7024 104.637 74.7024 106.012 74.8739C103.439 67.8484 99.5529 61.259 97.031 54.2094C97.031 53.9429 97.3141 53.7976 97.4428 53.9914C101.768 60.9079 105.354 68.2114 108.148 75.7945C108.431 76.7393 104.571 76.4001 103.799 76.1821Z" fill="#263238"/>
<path d="M103.278 81.0276C102.694 82.3937 101.746 83.5951 100.525 84.5161C99.8485 84.9965 99.0302 85.2674 98.1832 85.2913C96.3304 85.2913 95.8414 83.8377 95.7642 82.4569C95.7408 81.733 95.8099 81.0091 95.97 80.3008C98.2587 81.2802 100.823 81.5352 103.278 81.0276Z" fill="#263238"/>
<path d="M100.521 84.5123C99.844 84.9927 99.0258 85.2636 98.1787 85.2875C96.3259 85.2875 95.837 83.8339 95.7598 82.4531C96.6835 82.2499 97.6529 82.3421 98.5149 82.7149C99.3769 83.0878 100.082 83.7201 100.521 84.5123Z" fill="#FF9CBD"/>
<path d="M57.7004 77.3683C64.7257 77.3683 64.3911 62.2031 64.3911 62.2031C64.3911 62.2031 93.187 53.8452 92.5179 30.9762C97.528 39.6874 105.903 46.2529 115.91 49.315C115.91 49.315 111.406 24.7017 89.8931 22.4972C89.8931 22.4972 62.7956 16.8526 50.9839 37.9774C39.1721 59.1022 52.9911 77.3926 57.7004 77.3683Z" fill="#263238"/>
<path d="M92.4348 29.2773C93.2199 32.7267 93.2199 36.2935 92.4348 39.7428C91.7366 43.2158 90.2821 46.5152 88.163 49.4331C87.6317 50.1661 87.056 50.8699 86.4389 51.5407L85.5382 52.5824L84.5346 53.5272C83.8398 54.1329 83.1707 54.7627 82.4501 55.3199L80.1598 56.8946L79.0276 57.6456L77.7924 58.2755L75.219 59.5352C73.5206 60.2135 71.7707 60.8192 70.0723 61.4006C71.6678 60.48 73.3404 59.7532 74.8844 58.8569L77.1748 57.4276L78.307 56.725L79.3621 55.9013C80.0312 55.3441 80.726 54.8112 81.4465 54.2782C82.1671 53.7453 82.7075 53.067 83.3251 52.4855L84.2772 51.565L85.1007 50.5717C85.6919 49.9306 86.2337 49.2505 86.7219 48.5367C88.7334 45.7344 90.2215 42.6293 91.1224 39.3552C91.6039 37.7057 91.9311 36.0196 92.1003 34.3163C92.3596 32.6482 92.4715 30.9628 92.4348 29.2773Z" fill="#263238"/>
<path d="M61.4154 75.5475C61.4154 75.5475 52.2285 65.4454 47.2876 68.6189C42.3468 71.7925 50.0154 86.9578 56.3716 88.5567C57.1719 88.8109 58.0185 88.9105 58.8606 88.8496C59.7027 88.7886 60.5231 88.5684 61.2727 88.202C62.0223 87.8356 62.6857 87.3305 63.2231 86.7171C63.7606 86.1037 64.161 85.3946 64.4005 84.6321L61.4154 75.5475Z" fill="#EB9481"/>
<path d="M56.0383 33.0544C54.6744 36.3006 35.1169 39.0865 26.0844 26.8768C17.0518 14.6671 27.9372 -0.619325 43.7634 6.13964C53.8509 10.4034 58.9977 26.15 56.0383 33.0544Z" fill="#263238"/>
<path d="M25.2441 9.99664C28.4775 6.48972 32.8764 4.11607 37.725 3.26191C39.9836 2.81562 42.3274 2.93907 44.5191 3.61973C46.7108 4.30039 48.6726 5.51412 50.2058 7.13803C53.3371 10.5873 55.4101 14.7751 56.2017 19.2509C56.6789 21.5176 56.9372 23.8204 56.9737 26.1309C57.1079 28.4838 56.7853 30.8399 56.0216 33.0837C57.3047 30.9715 58.0942 28.626 58.3376 26.2036C58.6335 23.7891 58.6335 21.3505 58.3376 18.9359C57.852 13.9387 55.7299 9.20674 52.2645 5.39378C50.4256 3.45254 48.0425 2.0387 45.3889 1.31453C42.7352 0.59036 39.9184 0.585197 37.2617 1.29963C34.7382 1.90941 32.3722 2.99449 30.3066 4.48931C28.2411 5.98412 26.5189 7.85763 25.2441 9.99664Z" fill="#263238"/>
</svg>
